<ttFont>
          <CharString index="0">
            rmoveto
            -332 -250 -354.02000427246094 -378.99000549316406 -10 hvcurveto
            -228 -6 123 -222 285 hhcurveto
            196 159 127 callsubr
            57 491 callgsubr
            -112 153 callgsubr
            -42 57 callsubr
            hhcurveto
            -179 -48 210 -12 callsubr
            13 hvcurveto
            192 6 472 136 -1 311.00999450683594 rrcurveto
            140.99000549316406 -92 109.02000427246094 -194 vhcurveto
            77 -267 rmoveto
            -203.02000427246094 -289 -116 -160 440 callsubr
            19 103 306.02000427246094 202 460 callsubr
            51 -45 -104 1 hvcurveto
            endchar
          </CharString>
          <CharString index="1">
            373 callsubr
            -346.00999450683594 -362.99000549316406 -548 10 374 callgsubr
            5 141 -331.97999572753906 356 hhcurveto
            161 151 46.97999572753906 30 101 hvcurveto
            55 16 35.99000549316406 13 39.02000427246094 4 89.99000549316406 630 rcurveline
            -447 hlineto
            -13 -117 233 -17 -57 -397 rlineto
            -76 -77 -118.99000549316406 273 callsubr
            -248.02000427246094 -93.97999572753906 282.99000549316406 263 97 callsubr
            hvcurveto
            303 -5 124 469 384 hhcurveto
            145 66 -28 -35 41.99000549316406 hvcurveto
            22.020004272460938 -182.99000549316406 rlineto
            48 callsubr
            hlineto
            58 297 -39 11 rlineto
            21 206 callsubr
            153 callgsubr
            35 -206 hhcurveto
            return
          </CharString>
          <CharString index="2">
            rmoveto
            -8.990005493164062 13 callgsubr
            162 1281 -90 callsubr
            68 callgsubr
            rlineto
            return
          </CharString>
          <CharString index="3">
            rmoveto
            199 callsubr
            -1017 rlineto
            1 callgsubr
            hlineto
            -234.99000549316406 -109 -160 -70 -86 215 callsubr
            -55 217 callgsubr
            56 callgsubr
            111 callgsubr
            hvcurveto
            -47 -160 rlineto
            -12 39 89.99000549316406 -16 44.99000549316406 hhcurveto
            188 -28 callsubr
            94 76 53 hvcurveto
            82 100 117 182.99000549316406 188 378 rrcurveto
            hintmask 10101000
            56 callsubr
            151 callsubr
            137 233 224 vvcurveto
            122.99000549316406 -40 68.00999450683594 81 callsubr
            -57 -42 -30 -74 vhcurveto
            -49 34 -35 -46 vvcurveto
            -230.99000549316406 -106 -162 -86 -204 vhcurveto
            -155 -310 -47 callsubr
            272 rlineto
            hintmask 10011000
            -2 10 -82.99000549316406 712 -2 11 rrcurveto
            83 62 callsubr
            -25.009994506835938 54 -100 hhcurveto
            -106 3 callgsubr
            -100 -25 -16 hvcurveto
            hintmask 11001000
            29 -60 rlineto
            40.02000427246094 -39 callsubr
            18 481 callsubr
            13 -39 callgsubr
            -42 7 hvcurveto
            endchar
          </CharString>
          <CharString index="4">
            hlineto
            88 321.97999572753906 -109.02000427246094 30 -118.99000549316406 -211 -547 -24 83 604.0200042724609 447 -17 12.979995727539062 158.99000549316406 -448 -7.9900054931640625 9 callsubr
            558.9900054931641 437 -15 47 546 callgsubr
            111 hlineto
            7.9900054931640625 312 rlineto
            -934 -25 callsubr
            -1281.990005493164 -149.02000427246094 -29 rlineto
            endchar
          </CharString>
          <CharString index="5">
            rmoveto
            -16 -119.00999450683594 -19.009994506835938 -135.99000549316406 -88 vvcurveto
            -208 104.02000427246094 -66 152.99000549316406 153 106 80.99000549316406 85 -27 callgsubr
            89 callgsubr
            rlineto
            -94 -40 callsubr
            39 53 callsubr
            92 hhcurveto
            122 109 116 29 18 hvcurveto
            return
          </CharString>
          <CharString index="6">
            rmoveto
            -38 callgsubr
            106 -182 225 426 callsubr
            72 129 callgsubr
            82 callsubr
            hvcurveto
            -45.02000427246094 -274.97999572753906 rlineto
            -166 -6 callsubr
            -39 -39 -169 hhcurveto
            -104.02000427246094 -109 37 -17 callsubr
            425 callgsubr
            -50 -186 rlineto
            -17 40 93 -18 88 hhcurveto
            200 292 114.02000427246094 316.99000549316406 428 callsubr
            192 1240 -122 -42 rlineto
            21 -56 -81 21.009994506835938 -81 460 callgsubr
            -863 rmoveto
            -80 -57 -113.99000549316406 -97.02000427246094 -119.00999450683594 215 callsubr
            -61 109.02000427246094 192.99000549316406 244.02000427246094 124 371 284 54 46 callgsubr
            -10.009994506835938 -29 38 hvcurveto
            57 callsubr
            -700.9900054931641 rlineto
            endchar
          </CharString>
          <CharString index="7">
            rmoveto
            203 322.97999572753906 rlineto
            137 callsubr
            178 163 274 186 vvcurveto
            218 callgsubr
            -36 80 callsubr
            -90.00999450683594 -57 -40 -35 204 callsubr
            -22 callsubr
            9 callgsubr
            -48 -4 -68 vhcurveto
            -13 -217 -152.99000549316406 -284 -47 -71 -108.00999450683594 -165 rcurveline
            -16 185.02000427246094 rlineto
            hintmask 01010100
            -64 812 rlineto
            -179 hlineto
            -347.00999450683594 -825 205 callgsubr
            -172 -12 186 rlineto
            hintmask 01001100
            -53 682 rlineto
            88 -55 callsubr
            195 callsubr
            49 -104 hhcurveto
            -104.02000427246094 -82.99000549316406 284 callsubr
            -15.020004272460938 hvcurveto
            hintmask 10100100
            30 -61 22 15.009994506835938 -22 callgsubr
            7.9900054931640625 -22 callgsubr
            -1 rlinecurve
            18.979995727539062 244 callsubr
            -49 callgsubr
            -41 7.9900054931640625 hvcurveto
            87.02000427246094 -608.0200042724609 92 callgsubr
            -374.97999572753906 172 12 146 callsubr
            333.99000549316406 191 405.00999450683594 48 6 callgsubr
            56 callgsubr
            -141.99000549316406 33 -377.02000427246094 rlineto
            hintmask 01001100
            38.99000549316406 -373.97999572753906 188 11 rlineto
            endchar
          </CharString>
          <CharString index="8">
            -92 callgsubr
            -75 callsubr
            return
          </CharString>
          <CharString index="9">
            -116 -877 rlineto
            -83 -64 -100 -77 -93.99000549316406 hhcurveto
            170 callgsubr
            -42 callsubr
            31 136.99000549316406 99 15 83 15.009994506835938 121 hvcurveto
            return
          </CharString>
          <CharString index="10">
            rmoveto
            152 callsubr
            -87 rlineto
            505 212 callgsubr
            -158 29 161.02000427246094 1281 96 callsubr
            5 callgsubr
            -485 -96 callsubr
            133.02000427246094 -23 -13 -105 -699 -732 104 callsubr
            -165 126.02000427246094 1002 2 callgsubr
            -484.99000549316406 -52 callsubr
            -10 -87 rlineto
            505 127 callgsubr
            -157 29 11.979995727539062 100 719.0099945068359 760.0099945068359 106 140.99000549316406 -126.02000427246094 -1001 441 callsubr
            endchar
          </CharString>
          <CharString index="11">
            hlineto
            -12 -96 callgsubr
            return
          </CharString>
          <CharString index="12">
            101.00999450683594 rlineto
            return
          </CharString>
          <CharString index="13">
            rmoveto
            332 callgsubr
            134.99000549316406 110 275 callgsubr
            65 vhcurveto
            1 -23 rlineto
            -99 397 callsubr
            219 callgsubr
            81 hhcurveto
            137 callsubr
            168 callsubr
            101 24.990005493164062 16 hvcurveto
            -30.990005493164062 53 162 callgsubr
            331 callsubr
            -7.9900054931640625 28 48 5.9799957275390625 hvcurveto
            208.02000427246094 1434.009994506836 -53 27 -271.00999450683594 -42 -21 -83 125.00999450683594 -22 callsubr
            rlineto
            return
          </CharString>
          <CharString index="14">
            -20 137.99000549316406 -135.99000549316406 -11 callsubr
            983.0399932861328 -78 callsubr
            return
          </CharString>
          <CharString index="15">
            -26 callsubr
            136 callsubr
            211.99000549316406 -45.00001525878906 270 hintmask 00000000
            hintmask 10011010
            327.99000549316406 -77 callsubr
            266 callgsubr
            81 callgsubr
            -70 -80 vhcurveto
            hintmask 10011100
            -22 callsubr
            -524 -73 callsubr
          </CharString>
          <CharString index="16">
            -96 callsubr
            133 return
          </CharString>
          <CharString index="17">
            153 -89 callsubr
            return
          </CharString>
          <CharString index="18">
            438 callgsubr
            -23 -160.99000549316406 -1281 return
          </CharString>
          <CharString index="19">
            rmoveto
            -5 callgsubr
            -104 1 -22.020004272460938 -11 vvcurveto
            306 callgsubr
            -24 callsubr
            -42 99 116 154.99000549316406 87 59 47 vhcurveto
            -18 129 callgsubr
            rlineto
            83 callgsubr
            -42 277 callgsubr
            -51 -52 hhcurveto
            -68 69 callsubr
            112 callsubr
            74.02000427246094 -7 callsubr
            7 63 10 75 hvcurveto
            83 625 rlineto
            257 hlineto
            20 140 rlineto
            -260.00999450683594 hlineto
            34 261 rlineto
            -98 hlineto
            -35 81 callsubr
            -42 callsubr
            -126.02000427246094 -45.02000427246094 5 callsubr
            243 callsubr
            -47 rcurveline
            -20 -88 rlineto
            -28 callsubr
            hlineto
            81 callsubr
            -718.9900054931641 rlineto
            return
          </CharString>
          <CharString index="20">
            -75 callgsubr
            139 105 99.99000549316406 hhcurveto
            70 return
          </CharString>
          <CharString index="21">
            -48 24 -249 -12 callgsubr
            70 callgsubr
            100 -60 43 callsubr
            return
          </CharString>
          <CharString index="22">
            -94 -66 -127 -132.02000427246094 -116 hhcurveto
            -100 -42 118 194 244 124 361 284 49 43.99000549316406 -8 -23 36 hvcurveto
            return
          </CharString>
          <CharString index="23">
            115 callsubr
            451 callgsubr
            398 callgsubr
            436.97999572753906 -119.00999450683594 23 -139 -331.97999572753906 -464 -11.020004272460938 -29 callgsubr
            -148 -29 rlineto
            return
          </CharString>
          <CharString index="24">
            87.97999572753906 return
          </CharString>
          <CharString index="25">
            603 286 callgsubr
            152 callgsubr
            71 callsubr
            328.99998474121094 207 -117 205 hintmask 00110101
            840.9900054931641 542 callsubr
            -18 callsubr
            hintmask 10010110
            -18 -118 111 callgsubr
            243 callsubr
            97 callsubr
            -98.02000427246094 rrcurveto
            -92 -4 43 219 callgsubr
            83.00999450683594 hhcurveto
            151 callgsubr
            -21 callgsubr
            420 callgsubr
            hintmask 01010110
            68 callsubr
            75 callsubr
            hintmask 00110101
            112 callsubr
            116.99000549316406 27.009994506835938 143 -56 callgsubr
            hintmask 00101101
            19 212 rlineto
            hintmask 00110101
            -48 24 379 callsubr
            99 -59 -87 callsubr
            38 -11 154 callsubr
            104 callsubr
            -22 -164 -19 -117 hvcurveto
            endchar
          </CharString>
          <CharString index="26">
            -129.99000549316406 -962.9900054931641 -8 callsubr
            return
          </CharString>
          <CharString index="27">
            2 callsubr
            985.0399932861328 -64 callgsubr
            return
          </CharString>
          <CharString index="28">
            -210 -505.99000549316406 147 1377.9700012207031 80 callgsubr
            -41.959991455078125 11 callgsubr
            return
          </CharString>
          <CharString index="29">
            -102 callgsubr
            -24.960006713867188 -59 callsubr
            return
          </CharString>
          <CharString index="30">
            1502.990005493164 -67 callgsubr
            return
          </CharString>
          <CharString index="31">
            rmoveto
            253 callsubr
            700 241 callgsubr
            146 callsubr
            1297 321 -21 -7 -342 rlineto
            111 hlineto
            82 callsubr
            471 rlineto
            -1148.009994506836 hlineto
            -77 -471 116 2 1 callgsubr
            341 315.97999572753906 -58 callgsubr
            318 callsubr
            -244 -23 rlineto
            return
          </CharString>
          <CharString index="32">
            -160.99000549316406 -1281 return
          </CharString>
          <CharString index="33">
            -25 callgsubr
            123 65 callsubr
            return
          </CharString>
          <CharString index="34">
            -74 callsubr
            hintmask 01101100
            -86 callgsubr
            hintmask 10011100
            -15 callgsubr
          </CharString>
          <CharString index="35">
            -29.990005493164062 return
          </CharString>
          <CharString index="36">
            -64 53 -53 64 82 71 -91 callgsubr
            -48 51 -76 return
          </CharString>
          <CharString index="37">
            -47 callsubr
            -111.99000549316406 -24 -126.02000427246094 -5 -92 rrcurveto
            -97 -6 48 -36.97999572753906 231 callgsubr
            293 callgsubr
            99 100.97999572753906 24.990005493164062 93 callgsubr
            hvcurveto
            return
          </CharString>
          <CharString index="38">
            452 callgsubr
            989 hlineto
            65 299.99000549316406 309 callsubr
            31 277 callgsubr
            -190.02000427246094 -511 -24 -27 callgsubr
            604.0200042724609 397 -17 15 386 callgsubr
            -401 -24 73.00999450683594 566.9900054931641 397 -15 46.97999572753906 -169 rlineto
            111 hlineto
            8 292 rlineto
            -1326 441 callgsubr
            291 -22 -700.9900054931641 -1282.990005493164 265 callsubr
            -29 -14 -87 rlineto
            559 hlineto
            6 87 -189 29.990005493164062 182 357 rlineto
            473.99000549316406 hlineto
            279 callgsubr
            -357.99000549316406 -121.02000427246094 -29 rlineto
            return
          </CharString>
          <CharString index="39">
            -60 callsubr
            201.989990234375 204 callgsubr
            hstemhm
            523.9799957275391 267.02000427246094 154 callgsubr
            268 hintmask 11011110
            523.9799957275391 1839.979995727539 rmoveto
            -63 52.02000427246094 -53 61.99000549316406 81 72 99 callsubr
            -68.02000427246094 418 callsubr
            -34 callgsubr
            52.97999572753906 362 callgsubr
            -64.97999572753906 -81.02000427246094 -66.99000549316406 -79 hvcurveto
            -227.99000549316406 -322 -101 callgsubr
            hintmask 11101110
            11 callsubr
            hintmask 11011110
            194 callsubr
            endchar
          </CharString>
          <CharString index="40">
            199 callgsubr
            -1139 rlineto
            -136 -18 -36 -105 -65 hhcurveto
            5 callsubr
            -34 callgsubr
            -101 33 -39 callgsubr
            6 rrcurveto
            return
          </CharString>
          <CharString index="41">
            -57 -462.99000549316406 235 callsubr
            286 115 551 callgsubr
            281.97999572753906 124 vstem
            808 1419.979995727539 rmoveto
            116 97 callgsubr
            -40 callsubr
            -25 36 hvcurveto
            24 -262 548 callsubr
            66 368 -38 11 rlineto
            17 -63 -111 29 -181 hhcurveto
            264 callsubr
            -348.02000427246094 -362 -548.9900054931641 182 callgsubr
            395 callsubr
            -306.02000427246094 137 -326.97999572753906 356 62 callsubr
            rrcurveto
            1 105 callgsubr
            0 -11 479 callgsubr
            50 callgsubr
            -17 hvcurveto
            -16 -151 rlineto
            -16 22 56 -12 388 callgsubr
            573 callgsubr
            237 37 -4.0099945068359375 36 -6.9900054931640625 28 hvcurveto
            174 93 callgsubr
            126 50 callsubr
            59 -22 callgsubr
            40 328.99000549316406 rcurveline
            131 callgsubr
            endchar
          </CharString>
          <CharString index="42">
            335 callsubr
            627 rmoveto
            -12 -98 rlineto
            657 hlineto
            12 98 -235.99000549316406 24 105.99000549316406 868.9900054931641 90 callsubr
            333 callgsubr
            rlineto
            -3 hlineto
            -123 -87.02000427246094 -165.99000549316406 -44 -112 -30 182 callgsubr
            -103 rcurveline
            79 -63 callgsubr
            113 12 81.99000549316406 29 -82.99000549316406 -670.9900054931641 rcurveline
            -246 -24 rlineto
            return
          </CharString>
          <CharString index="43">
            -126 hlineto
            -349 603 151 25 12 100 rlineto
            -464 hlineto
            -12 -100 146 -24 390 -615 -180.02000427246094 -85 -349.99000549316406 -545.0099945068359 -110 -36 rlinecurve
            -82 -72 callsubr
            -12 -87 rlineto
            252.99000549316406 542 callgsubr
            345.99000549316406 683.9900054931641 137.02000427246094 hhcurveto
            110 hlineto
            -71 -567.0099945068359 68 callgsubr
            return
          </CharString>
          <CharString index="44">
            -14 117 -96 callgsubr
            87 632 182 callsubr
            571.0099945068359 100 -100 116 hstemhm
            1152 505 callgsubr
            hintmask 10101100
            121 callgsubr
            852.9900054931641 rmoveto
            -16 -132 rlineto
            150 hlineto
            hintmask 01101100
            -76 -602.0099945068359 -147.99000549316406 -30 rlineto
            hintmask 10101100
            535 callgsubr
            -4.9799957275390625 -4.0099945068359375 389 callsubr
            hvcurveto
            120 callsubr
            -32 callsubr
            53 -3 577 callsubr
            420 105 callgsubr
            530 rrcurveto
            369.99000549316406 -6 -163.99000549316406 246 -410.00999450683594 hhcurveto
            hintmask 10110100
            -94 -88 236 callsubr
            -34 callgsubr
            -87 hvcurveto
            -297 hlineto
            -12 -101 133.02000427246094 -23 -70 -547 rlineto
            hintmask 10101100
            352 callgsubr
            hlineto
            337 -132 rmoveto
            387.00999450683594 hlineto
            17 132 rlineto
            -386.99000549316406 hlineto
            69 549.9900054931641 rlineto
            11 39 90 10.009994506835938 76 callgsubr
            -405.00999450683594 -383 -27 -64 1 -123 10 -59 -58 callgsubr
            73 587.0200042724609 rcurveline
            endchar
          </CharString>
          <CharString index="45">
            1658.979995727539 235 callgsubr
            95.99000549316406 35.99000549316406 189 122 52 111 rlinecurve
            return
          </CharString>
          <CharString index="46">
            -45 callgsubr
            rlineto
            return
          </CharString>
          <CharString index="47">
            60 0 -44 callgsubr
            return
          </CharString>
          <CharString index="48">
            -102 callgsubr
            -32.96000671386719 -102 callgsubr
            return
          </CharString>
          <CharString index="49">
            0 callsubr
            186 callgsubr
            83.99000549316406 69.02000427246094 -76 callgsubr
            return
          </CharString>
          <CharString index="50">
            -30.990005493164062 return
          </CharString>
          <CharString index="51">
            -273 -20 43 -43 134 -114 43 986.9799957275391 133.00999450683594 270 callgsubr
            -25 1054.979995727539 hintmask 00100110
            471.97999572753906 433.99000549316406 rmoveto
            hintmask 10000110
            128 -349 rlineto
            -63 23 24 -42 88 hhcurveto
            118 408 callgsubr
            114.99000549316406 28 112 callgsubr
            hvcurveto
            hintmask 01001010
            -36 56.02000427246094 rlineto
            -53 -57 -26.990005493164062 -12 559 callsubr
            -39 callgsubr
            -58 callgsubr
            38 -18 hvcurveto
            -199 384 446 599 rlineto
            -215.99000549316406 hlineto
            -294.00999450683594 -442 rlineto
            hintmask 00100110
            -111 345.99000549316406 rlineto
            80 callsubr
            -22 431 callsubr
            36 81 callsubr
            hhcurveto
            -110 -80 -95 -24 -5 callgsubr
            hvcurveto
            hintmask 00110010
            -7 callsubr
            91 callgsubr
            rlineto
            66 callgsubr
            257 callsubr
            29 21 25 hhcurveto
            24 112 callgsubr
            -17.990005493164062 -39.02000427246094 19 hvcurveto
            184 -383 -433.99000549316406 -589.9900054931641 rlineto
            58 callsubr
            hlineto
            hintmask 00100110
            283 433.99000549316406 rlineto
            endchar
          </CharString>
          <CharString index="52">
            -9.009994506835938 return
          </CharString>
          <CharString index="53">
            rmoveto
            -31 56 callsubr
            rlineto
            -52 82 callgsubr
            -45 -43 -121 hhcurveto
            -122.02000427246094 -22 callsubr
            75.02000427246094 407 callsubr
            109 77 55 -28 callsubr
            86 hvcurveto
            136 95.99000549316406 204 101.00999450683594 220 vvcurveto
            140 -122 -24 callsubr
            -169 -159 -112 -72 -35 -45 vhcurveto
            22 -99 rlineto
            17 17 111 58 126 460 callsubr
            37 -42 callsubr
            -57.02000427246094 172 callsubr
            -50 -77 -145 -95 hvcurveto
            -167 -108 -162 -88 -205 vvcurveto
            return
          </CharString>
          <CharString index="54">
            242 callgsubr
            65.99000549316406 -6 69.02000427246094 1 197 2 96 callsubr
            187 34 256 callsubr
            133.02000427246094 1064 rcurveline
            233.99000549316406 569 callgsubr
            -233 hlineto
            12 90 -22 callgsubr
            166 52 112 95.99000549316406 1 rlinecurve
            80 callsubr
            70 callsubr
            41 -57 callsubr
            24 -18 310 callsubr
            168 rcurveline
            22 334 callsubr
            -51 4 336 callsubr
            hhcurveto
            447 callsubr
            -187 -203 257 callgsubr
            -40 hvcurveto
            return
          </CharString>
          <CharString index="55">
            -99 callsubr
            116 callgsubr
            return
          </CharString>
          <CharString index="56">
            -44 498 callgsubr
            -11 462 callsubr
            111 callgsubr
            97 callsubr
            79 callgsubr
            2 hvcurveto
            56 callgsubr
            -21 callgsubr
            -58 callgsubr
            92 callsubr
            17 102.02000427246094 rrcurveto
            return
          </CharString>
          <CharString index="57">
            242 callgsubr
            65.99000549316406 -6 69.02000427246094 1 196.97999572753906 2 154 187 34 return
          </CharString>
          <CharString index="58">
            -50 callsubr
            274 133 1060.990005493164 rcurveline
            235 569 callgsubr
            -234 hlineto
            12 90 214 callgsubr
            137 callsubr
            -10 callgsubr
            1 rlinecurve
            9 callsubr
            70 callsubr
            43.99000549316406 -57 callsubr
            396 callgsubr
            59 168 rcurveline
            22 -51 -54 4 541 callsubr
            -203 495 callsubr
            return
          </CharString>
          <CharString index="59">
            -513 143.99000549316406 -130.98001098632812 43 436.99000549316406 2 callsubr
            898 143.99000549316406 -56.95001220703125 161 callgsubr
            -26.949996948242188 -102 callgsubr
            return
          </CharString>
          <CharString index="60">
            -20.009994506835938 return
          </CharString>
          <CharString index="61">
            -17 callsubr
            210 138.02000427246094 196 callgsubr
            11 -95 callsubr
            -476 371 callsubr
            -24 -45.02000427246094 -361 rlineto
            -365 -45 149 54 callgsubr
            234.99000549316406 hhcurveto
            return
          </CharString>
          <CharString index="62">
            -43 0 87 566 callgsubr
            378 callsubr
            756.9900054931641 119 -57.94999694824219 276 callsubr
            1013.9799957275391 58 callsubr
            hintmask 11101000
            96 callgsubr
            87 405 callgsubr
            553 hlineto
            7.9900054931640625 -83 callsubr
            -199.99000549316406 29 51 430 rlineto
            -32 callsubr
            36 45 -1 89 hhcurveto
            338 511 callgsubr
            212 503 callsubr
            -7 hvcurveto
            547 callsubr
            -163 126 -293.99000549316406 hhcurveto
            hintmask 11011000
            -105 -86 -17 -96.02000427246094 hhcurveto
            -255 34 callsubr
            hintmask 11101000
            142 callsubr
            583 576 rmoveto
            -49 -42 callsubr
            4 10 -61 hvcurveto
            1 callgsubr
            722 54 12 79 8 50 callsubr
            70 callsubr
            rlinecurve
            223 6 60 119 callsubr
            -3 -187 -5 -303 -101 -162 -287.99000549316406 -32 callsubr
            rrcurveto
            endchar
          </CharString>
          <CharString index="63">
            -413 126 callgsubr
            556 callsubr
            188.99998474121094 193 hintmask 11011000
            76.97999572753906 192 rmoveto
            -51 callgsubr
            -153 rlineto
            -30 35 139 -29 121 hhcurveto
            211 151 callsubr
            111 208 168 -120 98 410 callgsubr
            81 hvcurveto
            -89.00999450683594 69.02000427246094 -83 80 13 104 rrcurveto
            106 12 205 callsubr
            28 84 hhcurveto
            125.00999450683594 205 callsubr
            -58 -18 12 hvcurveto
            hintmask 10111000
            38 169 rlineto
            hintmask 11011000
            93 callgsubr
            280 callsubr
            -116 22.020004272460938 91 callsubr
            hhcurveto
            8 callsubr
            468 callsubr
          </CharString>
          <CharString index="64">
            rmoveto
            -37 -153 rlineto
            -30 35 139.02000427246094 -29 121 hhcurveto
            210.99000549316406 189 111 208 168 -120 98 -103.02000427246094 81 hvcurveto
            70 callgsubr
            69.02000427246094 -83 80 13 104 rrcurveto
            106 12 205 callsubr
            28 -24 callsubr
            hhcurveto
            -23 callgsubr
            89 -58 -18 12 hvcurveto
            return
          </CharString>
          <CharString index="65">
            -54.99000549316406 return
          </CharString>
          <CharString index="66">
            -441.02000427246094 -309.97999572753906 return
          </CharString>
          <CharString index="67">
            -19.990005493164062 return
          </CharString>
          <CharString index="68">
            47.99000549316406 return
          </CharString>
          <CharString index="69">
            51 -75 -11 callgsubr
            return
          </CharString>
          <CharString index="70">
            118.99000549316406 return
          </CharString>
          <CharString index="71">
            247 callsubr
            377 callsubr
            hlineto
            12 165 callgsubr
            -86 137 callgsubr
            -99 35 -178.02000427246094 380 callgsubr
            -150 105 rlinecurve
            505 622 177 callgsubr
            -467 -599 rlineto
            -157.99000549316406 hlineto
            return
          </CharString>
          <CharString index="72">
            -332 660.0099945068359 470.02000427246094 621 136.99000549316406 203 callsubr
            -471 -96 callsubr
            140 -23 -338 -502.99000549316406 -199.99000549316406 502.99000549316406 145 23 11 -95 callsubr
            -522 hlineto
            105 callgsubr
            -96 callgsubr
            138.02000427246094 -6 callsubr
            301 -628 -499 -651 -120.99000549316406 207 callgsubr
            rlineto
            endchar
          </CharString>
          <CharString index="73">
            -47 callgsubr
            145 callsubr
            449.00999450683594 245 callsubr
            vstem
            return
          </CharString>
          <CharString index="74">
            215 callgsubr
            -77 17 -65.99000549316406 hhcurveto
            12 -814 rmoveto
            return
          </CharString>
          <CharString index="75">
            -2.9900054931640625 return
          </CharString>
          <CharString index="76">
            -20.990005493164062 return
          </CharString>
          <CharString index="77">
            -51 callgsubr
            -47 136 callgsubr
            return
          </CharString>
          <CharString index="78">
            330 callgsubr
            772.0099945068359 58 callsubr
            return
          </CharString>
          <CharString index="79">
            119.99000549316406 return
          </CharString>
          <CharString index="80">
            515 callsubr
            959.9799957275391 193 callsubr
            return
          </CharString>
          <CharString index="81">
            -640 -20 288 callsubr
            hstemhm
            return
          </CharString>
          <CharString index="82">
            -92 callgsubr
            -14 callgsubr
            return
          </CharString>
          <CharString index="83">
            84.00999450683594 return
          </CharString>
          <CharString index="84">
            -180 7 callgsubr
            209 -12 callsubr
            112 callgsubr
            hvcurveto
            192 6 471 136 311.00999450683594 vvcurveto
            140.99000549316406 -92 109.02000427246094 -194 -285 -223.99000549316406 -260.02000427246094 -313 -65 vhcurveto
            -88 15.009994506835938 -23 -39 callsubr
            40 vvcurveto
            306 callsubr
            23 73.99000549316406 17 411 callgsubr
            vhcurveto
            -169 35 rlineto
            195 callsubr
            69 callsubr
            217 callsubr
            -87.99000549316406 -54 vvcurveto
            -136 120 -70 160 -49 callgsubr
            vhcurveto
            665.9900054931641 421.00999450683594 rmoveto
            1 -203.02000427246094 -288.99000549316406 289 callgsubr
            endchar
          </CharString>
          <CharString index="85">
            -42.99000549316406 return
          </CharString>
          <CharString index="86">
            -154 30 25 1280 rlineto
            hintmask 01011000
            165 23 11 -95 callsubr
            -424 hlineto
            -140 -335.02000427246094 -176 -373.99000549316406 -139 -335.00999450683594 -65 -167 rcurveline
            -49 callgsubr
            167 -164 1044.009994506836 rlineto
            -447 230 callgsubr
            hintmask 01101000
            161 -23 170 callsubr
            -1281 rlineto
            hintmask 01011000
            -14 callgsubr
            -29 rlineto
            endchar
          </CharString>
          <CharString index="87">
            -41 callsubr
            -250 return
          </CharString>
          <CharString index="88">
            226 callgsubr
            9 callsubr
            538.9900054931641 rlineto
            29 hlineto
            139 123 -538.9900054931641 165 hhcurveto
            192 hlineto
            11.990005493164062 92 -74 36 -93 66 callgsubr
            -159 313 -98 125.00999450683594 rlinecurve
            hintmask 11010100
            177 145 249 293 callsubr
            169 vvcurveto
            59 -46 23 -48 -65.99000549316406 -72 -41 -66.99000549316406 vhcurveto
            -55 callgsubr
            -63 callgsubr
            -39 callgsubr
            106 callgsubr
            vvcurveto
            -36 -40 callsubr
            -41 -12 -12.990005493164062 vhcurveto
            -90.00999450683594 -117 146 callgsubr
            -66 -98 82 callgsubr
            rrcurveto
            -133 hlineto
            hintmask 11100100
            158 callsubr
            rlineto
            endchar
          </CharString>
          <CharString index="89">
            -56 -442.97999572753906 rlineto
            203 hlineto
            64 505 12 -5 callsubr
            12 95 6.9900054931640625 6 callsubr
            rlinecurve
            134 1 callgsubr
            127 104 97 hhcurveto
            54 47 -10 -143 104 callsubr
            545 callgsubr
            -18 -112 hvcurveto
            return
          </CharString>
          <CharString index="90">
            25.990005493164062 return
          </CharString>
          <CharString index="91">
            -635 -518 107 1509.0299987792969 -64 callgsubr
            4 callsubr
            314.97999572753906 270 hintmask 00000000
            hintmask 11011000
            314.97999572753906 -77 callsubr
            266 callgsubr
            81 callgsubr
            -70 -80 vhcurveto
            -525.9900054931641 -1983.979995727539 rmoveto
            144 callsubr
            376 callgsubr
            hintmask 10111000
            -18 callgsubr
            hintmask 11011000
            -36 -82 rlineto
            endchar
          </CharString>
          <CharString index="92">
            -8.009994506835938 return
          </CharString>
          <CharString index="93">
            rmoveto
            -404.00999450683594 -297.97999572753906 -393 88 callgsubr
            -344 5 158 -294.97999572753906 338 hhcurveto
            404.99000549316406 297 400.99000549316406 74 callsubr
            343 -6 -157 287.99000549316406 -338 hhcurveto
            -477 -721.9900054931641 rmoveto
            355.99000549316406 -7 callsubr
            178 241 227 516 callsubr
            -40 callsubr
            0 -47 callsubr
            -1 111 callgsubr
            vhcurveto
            -763 hlineto
            757 -108.00999450683594 rmoveto
            -362.99000549316406 -37 -179 -249.02000427246094 -228 463 callsubr
            225.02000427246094 320.97999572753906 -6 hvcurveto
            -1 22.020004272460938 1 22 22 vvcurveto
            765.0099945068359 hlineto
            endchar
          </CharString>
          <CharString index="94">
            -83 callgsubr
            -47 return
          </CharString>
          <CharString index="95">
            129.99000549316406 return
          </CharString>
          <CharString index="96">
            132.99000549316406 return
          </CharString>
          <CharString index="97">
            30 callgsubr
            137.99000549316406 hlineto
            return
          </CharString>
          <CharString index="98">
            -105 callsubr
            1037 1310.990005493164 rmoveto
            -51 -435 -55 callgsubr
            418 callgsubr
            204 34 228 115.02000427246094 86 270.97999572753906 120 callsubr
            270 callsubr
            138 callgsubr
            -95 callsubr
            -490 441 callgsubr
            141 -23 rlineto
            endchar
          </CharString>
          <CharString index="99">
            rlineto
            199.99000549316406 hlineto
            return
          </CharString>
          <CharString index="100">
            37.99000549316406 return
          </CharString>
          <CharString index="101">
            -25.990005493164062 return
          </CharString>
          <CharString index="102">
            78.99000549316406 return
          </CharString>
          <CharString index="103">
            536 callgsubr
            -46.02000427246094 -23.979995727539062 128 callgsubr
            -20 -13 404 callgsubr
            -185 hlineto
            -70 -571 rlineto
            195 callsubr
            172 callgsubr
            204 callsubr
            69 callsubr
            81 callsubr
            hhcurveto
            -212 -17 27.009994506835938 314 38.02000427246094 hvcurveto
            return
          </CharString>
          <CharString index="104">
            2.9900054931640625 return
          </CharString>
          <CharString index="105">
            -52 callgsubr
            152.00999450683594 268 return
          </CharString>
          <CharString index="106">
            1325.020004272461 730.9900054931641 rmoveto
            -58 12 callgsubr
            278 callsubr
            304 callgsubr
            83.00999450683594 hlineto
            307 callgsubr
            13 46 275 callgsubr
            hhcurveto
            411 -34 callgsubr
            154 callsubr
            -156.02000427246094 -642.0099945068359 -787.9900054931641 82 callsubr
            57 callgsubr
            112 callgsubr
            11 rlineto
            17 28 37 5 24 120 293 377 callgsubr
            149 hhcurveto
            49 179 callsubr
            17 hvcurveto
            58 38.970001220703125 33 190.02000427246094 1 93 rrcurveto
            -83 hlineto
            -90.00999450683594 -12.990005493164062 -71 54 callgsubr
            -94 hhcurveto
            -409 542 callgsubr
            139 rlineto
            return
          </CharString>
          <CharString index="107">
            99 callsubr
            -68 -20 callgsubr
            return
          </CharString>
          <CharString index="108">
            -574 27 callgsubr
            166 194 callgsubr
            402.97999572753906 336 callgsubr
            hintmask 00000000
            hintmask 11110000
            402.97999572753906 26 callsubr
            0.9799957275390625 -51 51 -75 hhcurveto
            -68 81 callgsubr
            29 callgsubr
            -366 -1716.990005493164 -105 callsubr
            endchar
          </CharString>
          <CharString index="109">
            43 -43 -11 callsubr
            return
          </CharString>
          <CharString index="110">
            -15.990005493164062 return
          </CharString>
          <CharString index="111">
            -61 callgsubr
            hstemhm
            return
          </CharString>
          <CharString index="112">
            -49.99000549316406 return
          </CharString>
          <CharString index="113">
            83.99000549316406 return
          </CharString>
          <CharString index="114">
            63 3 callsubr
            171 callsubr
            496.47999572753906 125.5 696 118 return
          </CharString>
          <CharString index="115">
            -206 -182.99000549316406 -126.02000427246094 -199 -162 138 -122 71 -53 hvcurveto
            87.99000549316406 -64.99000549316406 88 120 callgsubr
            -110 vvcurveto
            -130 152 callgsubr
            -12.990005493164062 -84 return
          </CharString>
          <CharString index="116">
            72.00999450683594 return
          </CharString>
          <CharString index="117">
            40 callgsubr
            -48 51 -75 -77 -69 -68 callgsubr
            hvcurveto
            return
          </CharString>
          <CharString index="118">
            376.00999450683594 797 11 -121 104 -676 rlineto
            return
          </CharString>
          <CharString index="119">
            81.97999572753906 211 return
          </CharString>
          <CharString index="120">
            55 84 hvcurveto
            23.990005493164062 5 32 -17 callsubr
            vvcurveto
            25 -6 21.009994506835938 return
          </CharString>
          <CharString index="121">
            1943 rmoveto
            221.99000549316406 299 callsubr
            170 callsubr
            -233 -237.02000427246094 233 205 callgsubr
            -58 rlineto
            return
          </CharString>
          <CharString index="122">
            405 callgsubr
            511 hlineto
            8 550 callgsubr
            182.99000549316406 1 90.00999450683594 -2 callgsubr
            81 -207 71 -180 rlinecurve
            -227 89.99000549316406 42 -42 callsubr
            55 hhcurveto
            233 hlineto
            5 98 rlineto
            -148 3 40 263.99000549316406 -123 hvcurveto
            -39.02000427246094 384 callgsubr
            -82.99000549316406 152.99000549316406 -62.02000427246094 53 244 69 138.02000427246094 191.02000427246094 -5 242 rrcurveto
            235 97 callsubr
            -138 277 callsubr
            -339 hhcurveto
            return
          </CharString>
          <CharString index="123">
            -19 -111.99000549316406 -25 -126.02000427246094 -5 -92 rrcurveto
            -97 -5 48 -36 231 callgsubr
            123 109 107 27 257 callsubr
            hvcurveto
            return
          </CharString>
          <CharString index="124">
            320.97999572753906 -64 57.02000427246094 170 callsubr
            -233 return
          </CharString>
          <CharString index="125">
            rmoveto
            -55 callsubr
            -87 rlineto
            511.02000427246094 hlineto
            7.9900054931640625 550 callgsubr
            183 1 89.99000549316406 -2 callgsubr
            81 -207 71 -180 rlinecurve
            -227 90.00999450683594 41.99000549316406 -42 callsubr
            55 hhcurveto
            233 hlineto
            5 98 rlineto
            -147.99000549316406 -3 callsubr
            40 263.99000549316406 -123 hvcurveto
            -39 384 callgsubr
            -83 152.99000549316406 -62 53 244 69 138 191.02000427246094 -5 242 rrcurveto
            235 -5 -138 277 callsubr
            -339 hhcurveto
            return
          </CharString>
          <CharString index="126">
            47 262 callgsubr
            24 5 32 -17 callsubr
            vvcurveto
            25 -6 66 callgsubr
            -22 vhcurveto
            return
          </CharString>
          <CharString index="127">
            227 callgsubr
            189 -126.00999450683594 95.99000549316406 183 callsubr
            return
          </CharString>
          <CharString index="128">
            886 hlineto
            66 callgsubr
            57 19 116.02000427246094 116.99000549316406 vvcurveto
            319.02000427246094 -144 182.99000549316406 -252 -328.99000549316406 -288.00999450683594 -275 -407 -88 vhcurveto
            -113.99000549316406 3 -29 48 43.99000549316406 vvcurveto
            153 callsubr
            34 205 callsubr
            -22 callgsubr
            23 vhcurveto
            -160 30 rlineto
            83 callgsubr
            -19 -40.02000427246094 152 callgsubr
            -51 vvcurveto
            -134 135 -59 167.02000427246094 -2 vhcurveto
            -6 105 callsubr
            -3 -69 callgsubr
            -52 vvcurveto
            return
          </CharString>
          <CharString index="129">
            134 23 11 -95 callsubr
            194 callsubr
            -11.979995727539062 -96 callgsubr
            96 callsubr
            -23 -76 -604 return
          </CharString>
          <CharString index="130">
            390 callgsubr
            71 -77.97999572753906 210 hhcurveto
            431 362 382.99000549316406 529 387.99000549316406 -212 261 -362.99000549316406 -252 387 callsubr
            -74 -5 -103.02000427246094 374 callsubr
            -309 rlineto
            133 hlineto
            63 235 callsubr
            rlineto
            58.02000427246094 50.02000427246094 -27 callgsubr
            52 145 hhcurveto
            336 callgsubr
            104 -254.02000427246094 -286.97999572753906 -14 0 -13 -1 498 callsubr
            -631.0099945068359 -58 callgsubr
            rlineto
            endchar
          </CharString>
          <CharString index="131">
            rmoveto
            -42 385 callsubr
            rlineto
            -51 callgsubr
            48 174 -50.99000549316406 186 hhcurveto
            return
          </CharString>
          <CharString index="132">
            110.00999450683594 475.00001525878906 118 return
          </CharString>
          <CharString index="133">
            49 callsubr
            82 9 callsubr
            18 callgsubr
            return
          </CharString>
          <CharString index="134">
            vstem
            -52 499 callgsubr
            -11 -9 callgsubr
            471.97999572753906 hlineto
            8 87 -149 29.990005493164062 360.02000427246094 525 233.99000549316406 -525.9900054931641 -151 207 callgsubr
            -7.9900054931640625 -9 callgsubr
            return
          </CharString>
          <CharString index="135">
            -25.009994506835938 86 rlineto
            -942 hlineto
            -57 -346.00999450683594 121 -23.979995727539062 56 callsubr
            247.99000549316406 570 7 -166.99000549316406 -195 return
          </CharString>
          <CharString index="136">
            -48.959991455078125 -59 callsubr
            return
          </CharString>
          <CharString index="137">
            34 -63.02000427246094 -74 19 -86 hhcurveto
            -417 -1258.990005493164 rmoveto
            -43 93 -23 126 -2 144 rrcurveto
            450 -7.9900054931640625 197 321 262 hhcurveto
            375 callsubr
            -25 -46 48 hvcurveto
            -560.9900054931641 -1063 rlineto
            704 595.9900054931641 rmoveto
            -450.99000549316406 7.9900054931640625 -197 -328 -262 hhcurveto
            -83 -66.99000549316406 35 61.99000549316406 -51 hvcurveto
            565.9900054931641 1075.020004272461 54 -94 29 -136 3 -163 rlinecurve
            endchar
          </CharString>
          <CharString index="138">
            138 5 callgsubr
            -495 179 callgsubr
            151 -23 return
          </CharString>
          <CharString index="139">
            63 178 rlineto
            24 23 55 36 -12 callsubr
            hhcurveto
            157 50 -57.02000427246094 387 callsubr
            309 callsubr
            -88 -116 -209 -23 hvcurveto
            -63.02000427246094 -6 -23.990005493164062 -133 111 21.009994506835938 rlineto
            return
          </CharString>
          <CharString index="140">
            -91 callgsubr
            105 callsubr
            -38 callsubr
            return
          </CharString>
          <CharString index="141">
            -99 callsubr
            rlineto
            return
          </CharString>
          <CharString index="142">
            -384 -58 -321 -12 -161 rrcurveto
            -97 return
          </CharString>
          <CharString index="143">
            134 164 154.99000549316406 22 213 callgsubr
            -105 hlineto
            -61 -22 return
          </CharString>
          <CharString index="144">
            -20 callgsubr
            hintmask 11111100
            87 callgsubr
            return
          </CharString>
          <CharString index="145">
            972.9799957275391 210 callsubr
            -50 -34 callgsubr
            -101 33 -39 callgsubr
            6 rrcurveto
            return
          </CharString>
          <CharString index="146">
            -102 callgsubr
            -15.960006713867188 -102 callgsubr
            return
          </CharString>
          <CharString index="147">
            79 callsubr
            53 -53 return
          </CharString>
          <CharString index="148">
            124 callgsubr
            hintmask 11001000
            191 callgsubr
            hintmask 10011000
            45 214 rlineto
            hintmask 11001000
            174 callgsubr
            hintmask 10101000
            66 callgsubr
            229 rlineto
            hintmask 11001000
            -48 24 -245.99000549316406 -52 -18 -89 rlineto
            hintmask 10011000
            100 -60 rlineto
            endchar
          </CharString>
          <CharString index="149">
            1485.990005493164 rmoveto
            -141.99000549316406 1 callgsubr
            -91.02000427246094 185 167 178 94 212 144 57 callsubr
            6 callsubr
            -173 -160.99000549316406 -190.02000427246094 -87 -214 vhcurveto
            484 52 rmoveto
            -152 -87 -45 337 callgsubr
            -87.02000427246094 -64.99000549316406 73 433 callgsubr
            218 callgsubr
            91 49 100 307 callgsubr
            92 callgsubr
            -66 -93 vhcurveto
            return
          </CharString>
          <CharString index="150">
            -69 callgsubr
            -366 rlineto
            return
          </CharString>
          <CharString index="151">
            -115 148 callsubr
            268.99000549316406 143 callsubr
            return
          </CharString>
          <CharString index="152">
            1839.979995727539 rmoveto
            -63 52 -53 return
          </CharString>
          <CharString index="153">
            112.99000549316406 return
          </CharString>
          <CharString index="154">
            vhcurveto
            1 11 1 11 11 vvcurveto
            -147 342 callsubr
            105 callgsubr
            -40 -39 -5 hvcurveto
            -99 -12 -29 -70 return
          </CharString>
          <CharString index="155">
            130.99000549316406 return
          </CharString>
          <CharString index="156">
            1803.979995727539 rmoveto
            -63 53 -53 64 return
          </CharString>
          <CharString index="157">
            49.99000549316406 return
          </CharString>
          <CharString index="158">
            -94 -88 -49 callgsubr
            -1 -87 hvcurveto
            -297 -92 callgsubr
            -162 -1281 return
          </CharString>
          <CharString index="159">
            101 -20 48 callgsubr
            return
          </CharString>
          <CharString index="160">
            -60.99000549316406 return
          </CharString>
          <CharString index="161">
            163 callsubr
            202 return
          </CharString>
          <CharString index="162">
            -53.99000549316406 return
          </CharString>
          <CharString index="163">
            96.99000549316406 return
          </CharString>
          <CharString index="164">
            -102.00999450683594 return
          </CharString>
          <CharString index="165">
            213.99000549316406 return
          </CharString>
          <CharString index="166">
            351 callsubr
            937.9900054931641 123 hstem
            -28 callgsubr
            vstem
            return
          </CharString>
          <CharString index="167">
            219.99000549316406 vstem
            461.99000549316406 5 rmoveto
            98 callgsubr
            172 callgsubr
            348 callsubr
            90 callsubr
            -85.99000549316406 420 callsubr
            -2 callgsubr
            -22.020004272460938 41.99000549316406 -70.99000549316406 523 callsubr
            270.97999572753906 vvcurveto
            return
          </CharString>
          <CharString index="168">
            -102 callgsubr
            -18.970016479492188 -102 callgsubr
            -37.94999694824219 276 callsubr
            return
          </CharString>
          <CharString index="169">
            -9.990005493164062 return
          </CharString>
          <CharString index="170">
            -4 3 callsubr
            109.97000122070312 959.010009765625 108.99000549316406 hstem
            48 callsubr
            212 600.989990234375 213 vstem
            48 callsubr
            450.99000549316406 rmoveto
            -252 116 -214.97000122070312 303 349 258 334.99000549316406 377 273 -109.02000427246094 193 -304.99000549316406 -334 -278 -308 -403 vhcurveto
            return
          </CharString>
          <CharString index="171">
            424 callsubr
            144 hhcurveto
            125.00999450683594 116 callsubr
            97.02000427246094 -27 callgsubr
            137 callgsubr
            hvcurveto
            -58 82 rlineto
            -37 -31 -36 5 callsubr
            -80 hhcurveto
            return
          </CharString>
          <CharString index="172">
            89 callsubr
            19 hvcurveto
            return
          </CharString>
          <CharString index="173">
            vstem
            215.97999572753906 1212.990005493164 rmoveto
            119 callsubr
            44 -133.02000427246094 134 183 callsubr
            vhcurveto
            147 152 5 40.97999572753906 rlineto
            -63.02000427246094 7 -46.97999572753906 171 callgsubr
            86 vvcurveto
            140 105.99000549316406 154 105 35 vhcurveto
            2 22 -42 71 rlineto
            -180 204 callsubr
            -211 -164 -271 vvcurveto
            return
          </CharString>
          <CharString index="174">
            525 callgsubr
            -74 57 -298 -243 -246 243 82 callgsubr
            -58 rlineto
            return
          </CharString>
          <CharString index="175">
            -57 callsubr
            53 rlineto
            return
          </CharString>
          <CharString index="176">
            -16.020004272460938 return
          </CharString>
          <CharString index="177">
            0.9900054931640625 return
          </CharString>
          <CharString index="178">
            191 callsubr
            hstemhm
            881.9900054931641 310 callgsubr
            return
          </CharString>
          <CharString index="179">
            -84 callsubr
            endchar
          </CharString>
          <CharString index="180">
            40 callsubr
            63 6 callsubr
            70 33 callsubr
            263 callgsubr
            return
          </CharString>
          <CharString index="181">
            530 -88 callgsubr
            hvcurveto
            return
          </CharString>
          <CharString index="182">
            -54 -61 195 callsubr
            -11 -22.020004272460938 hhcurveto
            -18 -6 27 48 3 hvcurveto
            7 104 18 109.02000427246094 17 105 rrcurveto
            return
          </CharString>
          <CharString index="183">
            6 29 hhcurveto
            243 58 -82 -157 5 hvcurveto
            6 -202.02000427246094 -104 -175.99000549316406 -240 69 callsubr
            rrcurveto
            return
          </CharString>
          <CharString index="184">
            -83 callsubr
            -158 29 71 567.0099945068359 rlineto
            return
          </CharString>
          <CharString index="185">
            58 callgsubr
            58 callsubr
            return
          </CharString>
          <CharString index="186">
            1502.990005493164 rmoveto
            -64 return
          </CharString>
          <CharString index="187">
            68.02000427246094 return
          </CharString>
          <CharString index="188">
            -89.99000549316406 return
          </CharString>
          <CharString index="189">
            67.00999450683594 return
          </CharString>
          <CharString index="190">
            -130.99000549316406 return
          </CharString>
          <CharString index="191">
            201 callsubr
            -19 -151.97999572753906 491 callsubr
            154 callgsubr
            rlineto
            -512 hlineto
            return
          </CharString>
          <CharString index="192">
            0 43 21 102.99000549316406 530 102.99000549316406 -55.00001525878906 103.00999450683594 530.0000152587891 -10 callgsubr
            9.04998779296875 276 callsubr
            445 callgsubr
            174.00999450683594 336.00001525878906 182.99000549316406 80 callgsubr
            279 callsubr
            336.00999450683594 183 return
          </CharString>
          <CharString index="193">
            430 -20 272 callsubr
            470.00001525878906 122 -117 117 403 callsubr
            1121 209.00999450683594 hintmask 11101100
            return
          </CharString>
          <CharString index="194">
            40.96000671386719 403 callsubr
            return
          </CharString>
          <CharString index="195">
            hstem
            12 callsubr
            return
          </CharString>
          <CharString index="196">
            105 60 callgsubr
            return
          </CharString>
          <CharString index="197">
            -77.99000549316406 return
          </CharString>
          <CharString index="198">
            -106.99000549316406 return
          </CharString>
          <CharString index="199">
            113.99000549316406 return
          </CharString>
          <CharString index="200">
            1839.979995727539 rmoveto
            -63 52 -53 62 81 72.00999450683594 72 81 60.99000549316406 -47 52 -76 -68 -76 -69.97999572753906 -80.02000427246094 vhcurveto
            87 callgsubr
            return
          </CharString>
          <CharString index="201">
            -63 -537.9900054931641 199 -1 64 538.9900054931641 rlineto
            203 hlineto
            -5 -36 -2 -36 183 callsubr
            vvcurveto
            return
          </CharString>
          <CharString index="202">
            72 -13 callsubr
            52 return
          </CharString>
          <CharString index="203">
            153.99000549316406 return
          </CharString>
          <CharString index="204">
            -5.0200042724609375 return
          </CharString>
          <CharString index="205">
            343 callsubr
            285 callsubr
            return
          </CharString>
          <CharString index="206">
            95 callsubr
            -76 return
          </CharString>
          <CharString index="207">
            296 1481.990005493164 rmoveto
            -193 531 callsubr
            -8 callsubr
            216 1623 -52 27 -271.99000549316406 -42 -16 -83 117 -22 callsubr
            rlineto
            438.99000549316406 -578 rmoveto
            -97 -130 -105 -59.99000549316406 -134 -103.02000427246094 rrcurveto
            2 hlineto
            -2 -0.9799957275390625 rlineto
            return
          </CharString>
          <CharString index="208">
            -23 -30 -23 242 callsubr
            -31 -126 -296 29 -158 hhcurveto
            -49 -49 callgsubr
            -11 -11 -17 hvcurveto
            endchar
          </CharString>
          <CharString index="209">
            506 62 callsubr
            184.97999572753906 1236.510009765625 110.49000549316406 return
          </CharString>
          <CharString index="210">
            -41 -20 43 -43 182 callsubr
            -111.99000549316406 358 callsubr
            return
          </CharString>
          <CharString index="211">
            -125.00999450683594 return
          </CharString>
          <CharString index="212">
            -48.99000549316406 return
          </CharString>
          <CharString index="213">
            -595 588.9799957275391 276 hstemhm
            204.97999572753906 280 hintmask 00000000
            hintmask 11000000
            363.99000549316406 502 callsubr
            419 callsubr
            391 callsubr
            50 callgsubr
            -35 58 -95 hhcurveto
            endchar
          </CharString>
          <CharString index="214">
            98 572.4900054931641 118.5 630 102.99000549316406 410 callgsubr
            -37 callsubr
            return
          </CharString>
          <CharString index="215">
            282.99000549316406 -119.00999450683594 167.02000427246094 -173 -145 -104 -145.02000427246094 -56 -38 vhcurveto
            return
          </CharString>
          <CharString index="216">
            35 callgsubr
            vstem
            return
          </CharString>
          <CharString index="217">
            199.99000549316406 55 -81.02000427246094 91 callsubr
            -148 -87 119 callsubr
            -229 -73 -48 7.9900054931640625 43 -61 hvcurveto
            -110 114 return
          </CharString>
          <CharString index="218">
            125.99000549316406 return
          </CharString>
          <CharString index="219">
            18.990005493164062 return
          </CharString>
          <CharString index="220">
            124 callsubr
            endchar
          </CharString>
          <CharString index="221">
            234 callgsubr
            266 callsubr
            493 callgsubr
            return
          </CharString>
          <CharString index="222">
            rmoveto
            -7.9900054931640625 -9 callgsubr
            return
          </CharString>
          <CharString index="223">
            71.99000549316406 return
          </CharString>
          <CharString index="224">
            49 -39 callsubr
            53 hvcurveto
            -55 callgsubr
            95 rlineto
            172 callgsubr
            91 callgsubr
            -38 69 callsubr
            -51 callgsubr
            hhcurveto
            -24 return
          </CharString>
          <CharString index="225">
            58 callgsubr
            219.99000549316406 return
          </CharString>
          <CharString index="226">
            -107.99000549316406 return
          </CharString>
          <CharString index="227">
            30.990005493164062 return
          </CharString>
          <CharString index="228">
            hlineto
            -31 -10 246 callsubr
            -178 426 callgsubr
            207 callgsubr
            0 -6 callsubr
            -55 callgsubr
            vvcurveto
            return
          </CharString>
          <CharString index="229">
            138 64 -6 hvcurveto
            -111 hlineto
            -2 callgsubr
            -39 callgsubr
            -1 69 callsubr
            -16 vvcurveto
            return
          </CharString>
          <CharString index="230">
            7 callgsubr
            1 callgsubr
            95 callgsubr
            return
          </CharString>
          <CharString index="231">
            -99 callsubr
            142 callsubr
            return
          </CharString>
          <CharString index="232">
            -75.02000427246094 35 466 callgsubr
            54 -64 rlineto
            118 29 218 callgsubr
            104 106 vvcurveto
            return
          </CharString>
          <CharString index="233">
            187 callsubr
            305 callsubr
            -271.00999450683594 76 58 return
          </CharString>
          <CharString index="234">
            124 -5 callsubr
            return
          </CharString>
          <CharString index="235">
            119.00999450683594 return
          </CharString>
          <CharString index="236">
            95.00999450683594 220 27 47 callsubr
            -146.99000549316406 344 callsubr
            return
          </CharString>
          <CharString index="237">
            533 callsubr
            -3 50 492 callgsubr
            83 117 callsubr
            -33 255 callgsubr
            64 return
          </CharString>
          <CharString index="238">
            327 callsubr
            -1 50 callgsubr
            rrcurveto
            119 callsubr
            hlineto
            -1 -6 0 -8 -7 vvcurveto
            return
          </CharString>
          <CharString index="239">
            hmoveto
            -64 -1 53 -53 64 hhcurveto
            83 10 callsubr
            return
          </CharString>
          <CharString index="240">
            -258 -23 179.99000549316406 826.989990234375 152 285 callgsubr
            return
          </CharString>
          <CharString index="241">
            34 228 115.02000427246094 86 270.97999572753906 return
          </CharString>
          <CharString index="242">
            -86 -659.9900054931641 rlineto
            endchar
          </CharString>
          <CharString index="243">
            160.99000549316406 return
          </CharString>
          <CharString index="244">
            113.00999450683594 return
          </CharString>
          <CharString index="245">
            -84.00999450683594 return
          </CharString>
          <CharString index="246">
            181 241 200 274.97999572753906 225.02000427246094 vvcurveto
            151 callgsubr
            -40 82 callsubr
            -89 -58 -48 -30 -74 vhcurveto
            -46 306 callsubr
            -39.02000427246094 -42 vvcurveto
            -232.97999572753906 -182 -247 -116 -165 vhcurveto
            -69 -111 -20 128 rlineto
            return
          </CharString>
          <CharString index="247">
            -880 1312.009994506836 167 callsubr
          </CharString>
          <CharString index="248">
            164 -24 164 -163.9600067138672 276 callsubr
            return
          </CharString>
          <CharString index="249">
            68 callgsubr
            rlineto
            return
          </CharString>
          <CharString index="250">
            6 callgsubr
            571.0499877929688 -32 callgsubr
            return
          </CharString>
          <CharString index="251">
            496 callsubr
            227.97999572753906 230 callsubr
            return
          </CharString>
          <CharString index="252">
            hstem
            118 callsubr
            return
          </CharString>
          <CharString index="253">
            165.99000549316406 return
          </CharString>
          <CharString index="254">
            -400 -20 141 894.9900054931641 147 hstem
            471 callgsubr
            vstem
            return
          </CharString>
          <CharString index="255">
            -31 callsubr
            163 callgsubr
            return
          </CharString>
          <CharString index="256">
            100 -20 111 1330.979995727539 100 return
          </CharString>
          <CharString index="257">
            rmoveto
            169 callsubr
            -12 97 callgsubr
            -38.970001220703125 84 hhcurveto
            111 102.99000549316406 98.97999572753906 27 16 hvcurveto
            return
          </CharString>
          <CharString index="258">
            188.99000549316406 return
          </CharString>
          <CharString index="259">
            -9.020004272460938 return
          </CharString>
          <CharString index="260">
            26.009994506835938 return
          </CharString>
          <CharString index="261">
            -142.99000549316406 return
          </CharString>
          <CharString index="262">
            445 callgsubr
            255 callsubr
            rmoveto
            -16 -119.00999450683594 -19.009994506835938 -135.99000549316406 -88 vvcurveto
            -208 104.02000427246094 -66 152.99000549316406 153 106 80.99000549316406 85 -27 callgsubr
            89 callgsubr
            rlineto
            return
          </CharString>
          <CharString index="263">
            -78 callsubr
            54 callsubr
            return
          </CharString>
          <CharString index="264">
            391 callgsubr
            1 -69 callgsubr
            51 -75 hhcurveto
            return
          </CharString>
          <CharString index="265">
            147 callgsubr
            499 rlineto
            hintmask 11001100
            251 callsubr
            return
          </CharString>
          <CharString index="266">
            276 callsubr
            764.9799957275391 -6 callgsubr
            -109.97999572753906 206 return
          </CharString>
          <CharString index="267">
            120.5 1282.990005493164 118.5 return
          </CharString>
          <CharString index="268">
            -40.02000427246094 -39 -5 hvcurveto
            -110 -12 -29 -78 return
          </CharString>
          <CharString index="269">
            83 callsubr
            -6 -127 rrcurveto
            return
          </CharString>
          <CharString index="270">
            hstemhm
            162.97999572753906 return
          </CharString>
          <CharString index="271">
            1.9900054931640625 return
          </CharString>
          <CharString index="272">
            207.99000549316406 return
          </CharString>
          <CharString index="273">
            -15 691.9900054931641 222 callsubr
            hstem
            232.97999572753906 855.0200042724609 vstem
            250.97999572753906 851.9900054931641 rmoveto
            -18 -14 callgsubr
            rlineto
            837.0200042724609 hlineto
            18 222 callsubr
            rlineto
            -837.0200042724609 hlineto
            endchar
          </CharString>
          <CharString index="274">
            -42 callgsubr
            endchar
          </CharString>
          <CharString index="275">
            94.99000549316406 return
          </CharString>
          <CharString index="276">
            -96.00999450683594 return
          </CharString>
          <CharString index="277">
            -316.99000549316406 return
          </CharString>
          <CharString index="278">
            117.99000549316406 return
          </CharString>
          <CharString index="279">
            -101.99000549316406 return
          </CharString>
          <CharString index="280">
            212 callsubr
            -88 callgsubr
            46 callgsubr
            159 callgsubr
            12 hvcurveto
            69 7.9900054931640625 -34 58 3 callgsubr
            hhcurveto
            return
          </CharString>
          <CharString index="281">
            46 139 callgsubr
            139 callgsubr
            36 328 callsubr
            return
          </CharString>
          <CharString index="282">
            -445 0 43 906.9799957275391 212 -63.94999694824219 161 callgsubr
            return
          </CharString>
          <CharString index="283">
            153 50 146 132 123 vvcurveto
            151 -133 88 -230.02000427246094 vhcurveto
            -210 -52 -55 -131.99000549316406 hhcurveto
            return
          </CharString>
          <CharString index="284">
            452 callgsubr
            249 hlineto
            57 97.00999450683594 -5 -4 45 hvcurveto
            return
          </CharString>
          <CharString index="285">
            -88 callgsubr
            -9 callgsubr
            return
          </CharString>
          <CharString index="286">
            35 -63 callgsubr
            138 callgsubr
            return
          </CharString>
          <CharString index="287">
            151 -23 -144 -1208 -71 233 return
          </CharString>
          <CharString index="288">
            -64.95999145507812 -102 callgsubr
            return
          </CharString>
          <CharString index="289">
            131.99000549316406 return
          </CharString>
          <CharString index="290">
            -35.99000549316406 return
          </CharString>
          <CharString index="291">
            -110.02000427246094 -90.99000549316406 105 callsubr
            vhcurveto
            -3 -21 62.99000549316406 -24 callgsubr
            rlineto
            181 64 164 181 224 vvcurveto
            121.97999572753906 -48 128 -111 49 vhcurveto
            -158 -124 rlineto
            endchar
          </CharString>
          <CharString index="292">
            5 -63 callgsubr
            -17 hvcurveto
            -16 -151 rlineto
            -16 22 return
          </CharString>
          <CharString index="293">
            -65 rlineto
            40 -88 callgsubr
            return
          </CharString>
          <CharString index="294">
            -57 333 270.00999450683594 return
          </CharString>
          <CharString index="295">
            436 711.9900054931641 rmoveto
            1 hlineto
            50 callgsubr
            40 61 6 70 hhcurveto
            243 callgsubr
            124 423 callsubr
            -219 222 callgsubr
          </CharString>
          <CharString index="296">
            -256 0 43 1446.0299987792969 -102 callgsubr
            hstem
            93 840.9900054931641 vstem
            773.9799957275391 1530 rmoveto
            -680.9900054931641 198 callsubr
            -160 hlineto
            endchar
          </CharString>
          <CharString index="297">
            154 438 callgsubr
            return
          </CharString>
          <CharString index="298">
            43 957.9799957275391 162.00999450683594 181 callsubr
            return
          </CharString>
          <CharString index="299">
            hhcurveto
            -57 callsubr
            211 callgsubr
            return
          </CharString>
          <CharString index="300">
            160 -64.94999694824219 -102 callgsubr
            return
          </CharString>
          <CharString index="301">
            -491.00999450683594 hlineto
            return
          </CharString>
          <CharString index="302">
            -24.990005493164062 return
          </CharString>
          <CharString index="303">
            433 callsubr
            -416.00999450683594 rlineto
            3 callgsubr
            -12.979995727539062 58 -36.97999572753906 81.99000549316406 hhcurveto
            113 -10 callgsubr
            165 callgsubr
            -17 callsubr
            257 callsubr
            hvcurveto
            return
          </CharString>
          <CharString index="304">
            rmoveto
            351 callgsubr
            408 callsubr
            110 6 281.99000549316406 7.9900054931640625 198 28 rlinecurve
            -406 172 callgsubr
            -218 -235.99000549316406 -240.99000549316406 hhcurveto
            -171 -69 58 41 -31 hvcurveto
            return
          </CharString>
          <CharString index="305">
            -1530 rlineto
            222 callsubr
            hlineto
            681 1530 rlineto
            return
          </CharString>
          <CharString index="306">
            171.99000549316406 return
          </CharString>
          <CharString index="307">
            195 callsubr
            86 rlineto
            -942.0200042724609 hlineto
            -57 -346.00999450683594 121 -23.979995727539062 97.00999450683594 247.99000549316406 570 7 -166.99000549316406 -195 -811.0099945068359 -1123 rlineto
            return
          </CharString>
          <CharString index="308">
            1879.979995727539 rmoveto
            return
          </CharString>
          <CharString index="309">
            -915 rlineto
            -240.99000549316406 -6 callsubr
            364 callgsubr
            return
          </CharString>
          <CharString index="310">
            23 10 -95 callsubr
            return
          </CharString>
          <CharString index="311">
            -74.02000427246094 return
          </CharString>
          <CharString index="312">
            88.99000549316406 return
          </CharString>
          <CharString index="313">
            -73.00999450683594 return
          </CharString>
          <CharString index="314">
            -513 143.99000549316406 -130.98001098632812 43 436.99000549316406 2 callsubr
            898 366 callgsubr
            335.0399932861328 -102 callgsubr
            return
          </CharString>
          <CharString index="315">
            147 -23 -170 -1282.990005493164 return
          </CharString>
          <CharString index="316">
            45 callsubr
            62.02000427246094 81 116 callsubr
            72 -83 callgsubr
            return
          </CharString>
          <CharString index="317">
            1011 240 callgsubr
            return
          </CharString>
          <CharString index="318">
            309 callgsubr
            283 callgsubr
            return
          </CharString>
          <CharString index="319">
            372 callgsubr
            -84 -11 hvcurveto
            -79 return
          </CharString>
          <CharString index="320">
            1554.979995727539 rmoveto
            -185 173 -83 return
          </CharString>
          <CharString index="321">
            379 callsubr
            98 -59 return
          </CharString>
          <CharString index="322">
            hhcurveto
            3 callgsubr
            return
          </CharString>
          <CharString index="323">
            87 -14 callgsubr
            return
          </CharString>
          <CharString index="324">
            -31.009994506835938 return
          </CharString>
          <CharString index="325">
            -148.99000549316406 return
          </CharString>
          <CharString index="326">
            -30.990005493164062 53 rlineto
            383 callsubr
            -19 -15 callsubr
            137 callgsubr
            46 callgsubr
            5 hvcurveto
            112 948 rlineto
            -816.9900054931641 hlineto
            return
          </CharString>
          <CharString index="327">
            1445.990005493164 305 callsubr
            rmoveto
            -3.0200042724609375 907 rlineto
            257 callgsubr
            hlineto
            -312 -669 -76 -205 280 callsubr
            205 -134.97999572753906 669 rlineto
            -454 hlineto
            return
          </CharString>
          <CharString index="328">
            286 callgsubr
            1371.0299835205078 276 callsubr
            504 callgsubr
            202 return
          </CharString>
          <CharString index="329">
            159.99000549316406 return
          </CharString>
          <CharString index="330">
            1429 431 callsubr
            rmoveto
            -54 35 callsubr
            -6.9799957275390625 239 callgsubr
            112 callsubr
            hvcurveto
            return
          </CharString>
          <CharString index="331">
            0 549 callsubr
            576.9999847412109 101 return
          </CharString>
          <CharString index="332">
            -58 324 211 callsubr
            return
          </CharString>
          <CharString index="333">
            hstemhm
            781.9799957275391 148 callgsubr
            return
          </CharString>
          <CharString index="334">
            33 callgsubr
            -1 53 -54 return
          </CharString>
          <CharString index="335">
            27 49 7 hvcurveto
            139 950.0099945068359 rlineto
            return
          </CharString>
          <CharString index="336">
            146 246 callgsubr
            333 callsubr
            return
          </CharString>
          <CharString index="337">
            181 178 340 40 hvcurveto
            return
          </CharString>
          <CharString index="338">
            485 callgsubr
            187.99000549316406 171 36 callsubr
            return
          </CharString>
          <CharString index="339">
            348 callsubr
            81 callgsubr
            -86 vvcurveto
            -140 return
          </CharString>
          <CharString index="340">
            1681.979995727539 rmoveto
            63 225 callsubr
            return
          </CharString>
          <CharString index="341">
            421 callgsubr
            -25.990005493164062 558 callgsubr
            -22 return
          </CharString>
          <CharString index="342">
            164.99000549316406 return
          </CharString>
          <CharString index="343">
            -15.009994506835938 return
          </CharString>
          <CharString index="344">
            229 callgsubr
            176 hlineto
            432 callsubr
            330.02000427246094 -74 57 -298 -243 -245.99000549316406 243 -79.00999450683594 -58 rlineto
            return
          </CharString>
          <CharString index="345">
            rlineto
            199 callsubr
            hlineto
            333 callgsubr
            149 -171 -13 30 241 -173 -18 rlineto
            return
          </CharString>
          <CharString index="346">
            59 497.99000549316406 rlineto
            -200 hlineto
            -59 -497.99000549316406 rlineto
            return
          </CharString>
          <CharString index="347">
            279 callsubr
            -138.99000549316406 return
          </CharString>
          <CharString index="348">
            0 87 255 callsubr
            110 return
          </CharString>
          <CharString index="349">
            -4.0200042724609375 return
          </CharString>
          <CharString index="350">
            -122.99000549316406 return
          </CharString>
          <CharString index="351">
            14.009994506835938 return
          </CharString>
          <CharString index="352">
            208.99000549316406 return
          </CharString>
          <CharString index="353">
            -40.02000427246094 -39 -5 hvcurveto
            -110 -12 -29 -78 -147 346 callgsubr
            return
          </CharString>
          <CharString index="354">
            345 callgsubr
            122 hlineto
            134 183 402 callgsubr
            return
          </CharString>
          <CharString index="355" raw="1">
            dc940a8b 0af74e1d 0b 
          </CharString>
          <CharString index="356">
            rmoveto
            1 19 1 112 callsubr
            -22 callgsubr
            vvcurveto
            108 callsubr
            return
          </CharString>
          <CharString index="357">
            83 callgsubr
            54 rlineto
            -53 91 callgsubr
            -29.029998779296875 -13 -31 callsubr
            hhcurveto
            -22 -15 callsubr
            228 callsubr
            return
          </CharString>
          <CharString index="358">
            -42 callsubr
            25 214 callsubr
            return
          </CharString>
          <CharString index="359">
            hstemhm
            136 callsubr
            200 callgsubr
            return
          </CharString>
          <CharString index="360">
            -55 callsubr
            -93.97999572753906 rlineto
            return
          </CharString>
          <CharString index="361">
            -96 callgsubr
            134 return
          </CharString>
          <CharString index="362">
            596.9900054931641 return
          </CharString>
          <CharString index="363">
            270.99000549316406 return
          </CharString>
          <CharString index="364">
            15.020004272460938 return
          </CharString>
          <CharString index="365">
            19 callsubr
            -177 hlineto
            -9 -28 0 -6 callsubr
            -55 callgsubr
            vvcurveto
            return
          </CharString>
          <CharString index="366">
            37 callgsubr
            -74 -58 5 callsubr
            -40 callsubr
            vhcurveto
            51 callgsubr
            -64 rlineto
            118 29 142 104 106 vvcurveto
            return
          </CharString>
          <CharString index="367">
            1311.990005493164 rmoveto
            386 callsubr
            57 callgsubr
            return
          </CharString>
          <CharString index="368">
            1681.979995727539 rmoveto
            return
          </CharString>
          <CharString index="369">
            -51 callgsubr
            53 217 callgsubr
            558 callsubr
            269.99000549316406 198 711.9799957275391 565 60 hvcurveto
            17 151 rlineto
            360 hlineto
            return
          </CharString>
          <CharString index="370">
            571 callsubr
            -19 -152 491 callsubr
            321 callgsubr
            return
          </CharString>
          <CharString index="371">
            -403.99000549316406 return
          </CharString>
          <CharString index="372">
            -153.99000549316406 return
          </CharString>
          <CharString index="373">
            -317.00999450683594 return
          </CharString>
          <CharString index="374">
            -23 -30 -23 242 callsubr
            -57 callsubr
            -126.00999450683594 -296 29 -158 hhcurveto
            105 callsubr
            236 callsubr
            -11 -11 -17 hvcurveto
            endchar
          </CharString>
          <CharString index="375">
            91 callsubr
            151 callsubr
            -126.00999450683594 1 callgsubr
            183 callsubr
            68 344 callgsubr
            -263 342.02000427246094 return
          </CharString>
          <CharString index="376">
            192 callsubr
            56 -12 53 366 callsubr
            return
          </CharString>
          <CharString index="377">
            168 callsubr
            58 563.0200042724609 72 665.9900054931641 155 22 rcurveline
            return
          </CharString>
          <CharString index="378">
            hstem
            119 callgsubr
            vstem
            return
          </CharString>
          <CharString index="379">
            141 338.97999572753906 110.00999450683594 return
          </CharString>
          <CharString index="380">
            -49 callgsubr
            -93 hhcurveto
            return
          </CharString>
          <CharString index="381">
            80 171 callgsubr
            return
          </CharString>
          <CharString index="382">
            -51 callgsubr
            vhcurveto
            return
          </CharString>
          <CharString index="383">
            -102 callgsubr
            hstemhm
            return
          </CharString>
          <CharString index="384">
            106.99000549316406 return
          </CharString>
          <CharString index="385">
            -21.020004272460938 return
          </CharString>
          <CharString index="386">
            173.99000549316406 return
          </CharString>
          <CharString index="387">
            -33.02000427246094 return
          </CharString>
          <CharString index="388">
            83 callgsubr
            140 -134 hhcurveto
            return
          </CharString>
          <CharString index="389">
            -20 20 callgsubr
            return
          </CharString>
          <CharString index="390">
            57.97999572753906 307 callsubr
            return
          </CharString>
          <CharString index="391">
            138 callsubr
            -31 callsubr
            return
          </CharString>
          <CharString index="392">
            214 callsubr
            rlineto
            return
          </CharString>
          <CharString index="393">
            60 callgsubr
            17 vhcurveto
            return
          </CharString>
          <CharString index="394">
            195 callgsubr
            34 466 callgsubr
            55 -64 rlineto
            171 callsubr
            29 142 104 106 vvcurveto
            return
          </CharString>
          <CharString index="395">
            -80 callsubr
            -61 callgsubr
            return
          </CharString>
          <CharString index="396">
            736 241 callsubr
            602.989990234375 125 -100 100 return
          </CharString>
          <CharString index="397">
            -107 -20 109 callsubr
            return
          </CharString>
          <CharString index="398">
            -68.02000427246094 return
          </CharString>
          <CharString index="399">
            200.99000549316406 return
          </CharString>
          <CharString index="400">
            176.99000549316406 return
          </CharString>
          <CharString index="401">
            96 callgsubr
            87 rmoveto
            345 callgsubr
            return
          </CharString>
          <CharString index="402">
            -518.9900054931641 43 return
          </CharString>
          <CharString index="403">
            1285.979995727539 rmoveto
            return
          </CharString>
          <CharString index="404">
            rmoveto
            28 277 callgsubr
            rlineto
            727 hlineto
            63 261 508 callsubr
            -58 callgsubr
            195 callgsubr
            -133 -442 -29 rlineto
            return
          </CharString>
          <CharString index="405">
            -263 -20 118 474.97999572753906 110 340.010009765625 140 return
          </CharString>
          <CharString index="406">
            276 callgsubr
            298 320.97999572753906 -64 57.02000427246094 return
          </CharString>
          <CharString index="407">
            71 -51 53 -39 callsubr
            vvcurveto
            54 63 19 45 28.970001220703125 vhcurveto
            return
          </CharString>
          <CharString index="408">
            43 979.9700012207031 129 -101.989990234375 -10 callgsubr
            hstemhm
            return
          </CharString>
          <CharString index="409">
            -32 -39 callgsubr
            -50 -2 -42 rrcurveto
            -65 return
          </CharString>
          <CharString index="410">
            hlineto
            -17 -96 callgsubr
            return
          </CharString>
          <CharString index="411">
            -164 -31 callsubr
            return
          </CharString>
          <CharString index="412">
            228.99000549316406 return
          </CharString>
          <CharString index="413">
            33.02000427246094 return
          </CharString>
          <CharString index="414">
            91.02000427246094 return
          </CharString>
          <CharString index="415">
            206.99000549316406 return
          </CharString>
          <CharString index="416">
            -107.00999450683594 return
          </CharString>
          <CharString index="417">
            58.97999572753906 return
          </CharString>
          <CharString index="418">
            -64 -148 rlineto
            -58 -51 -93 -53 -151 hhcurveto
            -186 -167 167.02000427246094 349 1 hvcurveto
            46 callgsubr
            1 47 4 45 vhcurveto
            return
          </CharString>
          <CharString index="419">
            -60 -23 115 -37.00999450683594 296.50999450683594 340.49000549316406 136 callsubr
            572.0099945068359 46 callsubr
            return
          </CharString>
          <CharString index="420">
            -53 311 callgsubr
            6 callsubr
            40 callgsubr
            105 callsubr
            51 195 callgsubr
            return
          </CharString>
          <CharString index="421">
            391 callgsubr
            70 callsubr
            -51 51 -75 hhcurveto
            return
          </CharString>
          <CharString index="422">
            204 350 callgsubr
            194 173 120 callgsubr
            137 return
          </CharString>
          <CharString index="423">
            -96 callsubr
            122 return
          </CharString>
          <CharString index="424">
            -183 -1289.990005493164 rlineto
            return
          </CharString>
          <CharString index="425">
            -164.99000549316406 -1297 return
          </CharString>
          <CharString index="426">
            -47 callsubr
            hhcurveto
            return
          </CharString>
          <CharString index="427">
            104 770.9900054931641 return
          </CharString>
          <CharString index="428">
            -94.99000549316406 return
          </CharString>
          <CharString index="429">
            -197.02000427246094 return
          </CharString>
          <CharString index="430">
            147.99000549316406 return
          </CharString>
          <CharString index="431">
            269.97999572753906 return
          </CharString>
          <CharString index="432">
            127.02000427246094 56.02000427246094 129 81 85 464 callgsubr
            return
          </CharString>
          <CharString index="433">
            hhcurveto
            138 99 81 callsubr
            -23 10 hvcurveto
            113 199 callsubr
            rlineto
            70 120 callgsubr
            -81 12 -114 hhcurveto
            return
          </CharString>
          <CharString index="434">
            -42 -21 callgsubr
            69 498 callsubr
            -2 11 -1 11 return
          </CharString>
          <CharString index="435">
            80 callsubr
            rlinecurve
            -144 138 return
          </CharString>
          <CharString index="436">
            46 callsubr
            237.02000427246094 return
          </CharString>
          <CharString index="437">
            -104 -100 385 callgsubr
            -86 -43 hvcurveto
            return
          </CharString>
          <CharString index="438">
            -17 hhcurveto
            -47 callsubr
            return
          </CharString>
          <CharString index="439">
            -464.99000549316406 165 return
          </CharString>
          <CharString index="440">
            vvcurveto
            226 -89 76 return
          </CharString>
          <CharString index="441">
            -47.97999572753906 return
          </CharString>
          <CharString index="442">
            223.99000549316406 return
          </CharString>
          <CharString index="443">
            -50.02000427246094 return
          </CharString>
          <CharString index="444">
            413 callgsubr
            -68 -76 hvcurveto
            46 callgsubr
            return
          </CharString>
          <CharString index="445">
            -524 -74 callsubr
            return
          </CharString>
          <CharString index="446">
            -36 83 hhcurveto
            123 89 callsubr
            return
          </CharString>
          <CharString index="447">
            hstem
            1133.479995727539 107.5 vstem
            return
          </CharString>
          <CharString index="448">
            hstem
            165 callgsubr
            396 callsubr
            return
          </CharString>
          <CharString index="449">
            hlineto
            -57 callsubr
            return
          </CharString>
          <CharString index="450">
            7 callgsubr
            24 return
          </CharString>
          <CharString index="451">
            hhcurveto
            -142 -36 19 callsubr
            return
          </CharString>
          <CharString index="452">
            73.02000427246094 353 callgsubr
            81 380.00999450683594 33 276.99000549316406 13 110 rcurveline
            316 hlineto
            return
          </CharString>
          <CharString index="453">
            490 callsubr
            -165.99000549316406 256 callgsubr
            5 callsubr
            128 165 29 return
          </CharString>
          <CharString index="454">
            450 callgsubr
            51 116 rlinecurve
            -134 128 callsubr
            return
          </CharString>
          <CharString index="455">
            133 -134 36 vhcurveto
            -147 -152 -5 -41 rlineto
            63 -7 47 return
          </CharString>
          <CharString index="456">
            151 callgsubr
            614 117 578.989990234375 116 return
          </CharString>
          <CharString index="457">
            55.99000549316406 return
          </CharString>
          <CharString index="458">
            -137 -20 122 return
          </CharString>
          <CharString index="459">
            -114.00999450683594 return
          </CharString>
          <CharString index="460">
            -95.00999450683594 return
          </CharString>
          <CharString index="461">
            126.00999450683594 return
          </CharString>
          <CharString index="462">
            hvcurveto
            -2 11 -1 11 -34 callgsubr
            50 callgsubr
            rrcurveto
            -108.00999450683594 hlineto
            -1 -6 0 -8 -7 vvcurveto
            return
          </CharString>
          <CharString index="463">
            157 -701.9700012207031 rlineto
            88 hlineto
            338 705.9900054931641 151 333.99000549316406 -18 -336 rlineto
            return
          </CharString>
          <CharString index="464">
            401 callgsubr
            rlineto
            endchar
          </CharString>
          <CharString index="465">
            429 callgsubr
            160 return
          </CharString>
          <CharString index="466">
            1287 112.5 return
          </CharString>
          <CharString index="467">
            491.99000549316406 415 callsubr
            return
          </CharString>
          <CharString index="468">
            145 callgsubr
            402 callsubr
            return
          </CharString>
          <CharString index="469">
            248 6 callgsubr
            1304 hstem
            683.9900054931641 136 callsubr
            vstem
            1240.990005493164 return
          </CharString>
          <CharString index="470">
            113 369 60 357.010009765625 -23 callgsubr
            return
          </CharString>
          <CharString index="471">
            45 callsubr
            61.99000549316406 81 return
          </CharString>
          <CharString index="472">
            -100 511 callsubr
            return
          </CharString>
          <CharString index="473">
            hhcurveto
            159 339 callgsubr
            return
          </CharString>
          <CharString index="474">
            147 -24 -484 -603 rlineto
            -146 hlineto
            return
          </CharString>
          <CharString index="475">
            hstemhm
            -4.9900054931640625 1213.990005493164 return
          </CharString>
          <CharString index="476">
            45 callsubr
            62 81 return
          </CharString>
          <CharString index="477">
            154 callgsubr
            934.0099945068359 hstem
            return
          </CharString>
          <CharString index="478">
            hlineto
            -12 254 callsubr
            return
          </CharString>
          <CharString index="479">
            334 callsubr
            71 hhcurveto
            return
          </CharString>
          <CharString index="480">
            rmoveto
            264 callsubr
            return
          </CharString>
          <CharString index="481">
            hvcurveto
            5 callsubr
            return
          </CharString>
          <CharString index="482">
            71 245 callgsubr
            return
          </CharString>
          <CharString index="483">
            rmoveto
            -15 callsubr
            return
          </CharString>
          <CharString index="484">
            229.99000549316406 return
          </CharString>
          <CharString index="485">
            120.00999450683594 return
          </CharString>
          <CharString index="486">
            -247 -52 -18 -89 return
          </CharString>
          <CharString index="487">
            80 callgsubr
            -41.959991455078125 11 callgsubr
            hstemhm
            return
          </CharString>
          <CharString index="488">
            -118 0 -83 callsubr
            623.0200042724609 147.49000549316406 544 119.5 return
          </CharString>
          <CharString index="489">
            484 callgsubr
            94 -7 callsubr
            156 116 return
          </CharString>
          <CharString index="490">
            -51 callgsubr
            -46 -24 128 callgsubr
            return
          </CharString>
          <CharString index="491">
            -218.99000549316406 return
          </CharString>
          <CharString index="492">
            -282.00999450683594 return
          </CharString>
          <CharString index="493">
            64.99000549316406 return
          </CharString>
          <CharString index="494">
            -84.99000549316406 return
          </CharString>
          <CharString index="495">
            195.99000549316406 return
          </CharString>
          <CharString index="496">
            45.02000427246094 return
          </CharString>
          <CharString index="497">
            284 238 154 callgsubr
            241 139 -109 93 -187 7.9900054931640625 hvcurveto
            return
          </CharString>
          <CharString index="498">
            260 callgsubr
            307 callsubr
            11 hvcurveto
            69 return
          </CharString>
          <CharString index="499">
            127 callgsubr
            -158 29 return
          </CharString>
          <CharString index="500">
            138 170 callsubr
            -431 rlineto
            return
          </CharString>
          <CharString index="501">
            160.97000122070312 211.30999755859375 return
          </CharString>
          <CharString index="502">
            hvcurveto
            206 callgsubr
            return
          </CharString>
          <CharString index="503">
            -6 callgsubr
            vstem
            return
          </CharString>
          <CharString index="504">
            -32 callsubr
            45 return
          </CharString>
          <CharString index="505">
            43 hstem
            -29 callsubr
            vstem
            return
          </CharString>
          <CharString index="506">
            -35 82 callsubr
            60 rcurveline
            -288.00999450683594 432 475 callsubr
            -148 rlineto
            return
          </CharString>
          <CharString index="507">
            rmoveto
            -62 82 callsubr
            46 callsubr
            -51.99000549316406 173.02000427246094 hhcurveto
            return
          </CharString>
          <CharString index="508">
            -345 -70 135 -164.97999572753906 233 hhcurveto
            return
          </CharString>
          <CharString index="509">
            -51 -123 -147 hhcurveto
            -162 return
          </CharString>
          <CharString index="510">
            hstemhm
            12 callsubr
            return
          </CharString>
          <CharString index="511">
            hstemhm
            1160.990005493164 210 return
          </CharString>
          <CharString index="512">
            1316.979995727539 118 return
          </CharString>
          <CharString index="513">
            -34.02000427246094 return
          </CharString>
          <CharString index="514">
            79.99000549316406 return
          </CharString>
          <CharString index="515">
            -170.99000549316406 return
          </CharString>
          <CharString index="516">
            -248 -52 -18 -89 return
          </CharString>
          <CharString index="517">
            -275.99000549316406 return
          </CharString>
          <CharString index="518">
            -177.99000549316406 return
          </CharString>
          <CharString index="519">
            486.00999450683594 43 rmoveto
            -131.02000427246094 -88 -46 -100 -97 -56 59 86 106 93 45 return
          </CharString>
          <CharString index="520">
            204 161 454 callgsubr
            return
          </CharString>
          <CharString index="521">
            1660.990005493164 rmoveto
            65 -48 95.99000549316406 36 189 122 52 111 rlinecurve
            return
          </CharString>
          <CharString index="522">
            -67 callgsubr
            -68 return
          </CharString>
          <CharString index="523">
            120 callsubr
            70 111 callgsubr
            -222.99000549316406 -47 callsubr
            return
          </CharString>
          <CharString index="524">
            rmoveto
            535 callgsubr
            -5 -4 389 callsubr
            hvcurveto
            return
          </CharString>
          <CharString index="525">
            -20 callgsubr
            33 callgsubr
            return
          </CharString>
          <CharString index="526">
            rmoveto
            212 callsubr
            return
          </CharString>
          <CharString index="527">
            vvcurveto
            -140 -106 523 callgsubr
            return
          </CharString>
          <CharString index="528">
            335 callsubr
            -210.00001525878906 211 return
          </CharString>
          <CharString index="529">
            461 callsubr
            1525 return
          </CharString>
          <CharString index="530">
            -83 -170 -241 -141 -139 return
          </CharString>
          <CharString index="531">
            -2 111 41 -139 return
          </CharString>
          <CharString index="532">
            hlineto
            -5 callgsubr
            return
          </CharString>
          <CharString index="533">
            -12 callsubr
            105 return
          </CharString>
          <CharString index="534">
            1800.990005493164 rmoveto
            return
          </CharString>
          <CharString index="535">
            46 callgsubr
            hvcurveto
            return
          </CharString>
          <CharString index="536">
            -683.9900054931641 return
          </CharString>
          <CharString index="537">
            196.99000549316406 return
          </CharString>
          <CharString index="538">
            -32.02000427246094 return
          </CharString>
          <CharString index="539">
            297.97999572753906 return
          </CharString>
          <CharString index="540">
            -56.02000427246094 return
          </CharString>
          <CharString index="541">
            216.99000549316406 return
          </CharString>
          <CharString index="542">
            -721.0200042724609 rlineto
            218 callgsubr
            hlineto
            165 721.0200042724609 rlineto
            return
          </CharString>
          <CharString index="543">
            -20 142.99000549316406 917 534 callsubr
            return
          </CharString>
          <CharString index="544">
            228 129 callgsubr
            451 callsubr
            295 -5.9799957275390625 vhcurveto
            return
          </CharString>
          <CharString index="545">
            hstemhm
            105.97999572753906 1248.009994506836 return
          </CharString>
          <CharString index="546">
            88 356.010009765625 89.99000549316406 return
          </CharString>
          <CharString index="547">
            -6.9900054931640625 vhcurveto
            168.97999572753906 return
          </CharString>
          <CharString index="548">
            -147.99000549316406 -72 callsubr
            rlineto
            return
          </CharString>
          <CharString index="549">
            172 callsubr
            546 callsubr
            return
          </CharString>
          <CharString index="550">
            202 204 callgsubr
            return
          </CharString>
          <CharString index="551">
            241.99000549316406 return
          </CharString>
          <CharString index="552">
            -194.99000549316406 return
          </CharString>
          <CharString index="553">
            177.99000549316406 return
          </CharString>
          <CharString index="554">
            -183.99000549316406 return
          </CharString>
          <CharString index="555">
            35.97999572753906 return
          </CharString>
          <CharString index="556">
            275.97999572753906 return
          </CharString>
          <CharString index="557">
            -72.00999450683594 return
          </CharString>
          <CharString index="558">
            364.99000549316406 return
          </CharString>
          <CharString index="559">
            538 callsubr
            111 callsubr
            hlineto
            return
          </CharString>
          <CharString index="560">
            -89 rcurveline
            204 134 callsubr
            return
          </CharString>
          <CharString index="561">
            -518 182 callsubr
            -131.98001098632812 43 454.99000549316406 return
          </CharString>
          <CharString index="562">
            -204 0 102.5 1304.979995727539 114.5 return
          </CharString>
          <CharString index="563">
            443 callsubr
            hstem
            return
          </CharString>
          <CharString index="564">
            hstem
            28 1968.979995727539 vstem
            return
          </CharString>
          <CharString index="565">
            -99.97999572753906 rlineto
            return
          </CharString>
          <CharString index="566">
            119 callsubr
            rlineto
            return
          </CharString>
          <CharString index="567">
            hhcurveto
            73.00999450683594 return
          </CharString>
          <CharString index="568">
            hstemhm
            9 callgsubr
            return
          </CharString>
          <CharString index="569">
            278 callsubr
            hhcurveto
            return
          </CharString>
          <CharString index="570">
            hhcurveto
            -210 -105 return
          </CharString>
          <CharString index="571">
            187 callsubr
            229 -271.00999450683594 76 58 return
          </CharString>
          <CharString index="572">
            rmoveto
            496 callsubr
            228 230 callsubr
            return
          </CharString>
          <CharString index="573">
            -89 -516.9900054931641 182 callsubr
            -131.97999572753906 43 return
          </CharString>
          <CharString index="574">
            -126 -508 158 330 20 callgsubr
            return
          </CharString>
          <CharString index="575">
            99 callgsubr
            vhcurveto
            endchar
          </CharString>
          <CharString index="576">
            rmoveto
            -257 5 -99 -343 -227 hhcurveto
            return
          </CharString>
          <CharString index="577">
            -7 callsubr
            509 callsubr
            return
          </CharString>
          <CharString index="578">
            12.990005493164062 return
          </CharString>
          <CharString index="579">
            -91.00999450683594 return
          </CharString>
          <CharString index="580">
            9.020004272460938 return
          </CharString>
          <CharString index="581">
            -124.99000549316406 return
          </CharString>
          <CharString index="582">
            -154.99000549316406 return
          </CharString>
          <CharString index="583">
            233 -77 -58 rlineto
            return
          </CharString>
          <CharString index="584">
            -229.99000549316406 return
          </CharString>
          <CharString index="585">
            -53 -169 rlineto
            return
          </CharString>
          <CharString index="586">
            421.99000549316406 554 callsubr
            return
          </CharString>
          <CharString index="587">
            1676.979995727539 rmoveto
            389 callgsubr
            -65.99000549316406 return
          </CharString>
          <CharString index="588">
            70 callsubr
            15.009994506835938 hhcurveto
            -58 callgsubr
            return
          </CharString>
          <CharString index="589">
            1189.990005493164 591.9900054931641 hstem
            293.99000549316406 return
          </CharString>
          <CharString index="590">
            537 callgsubr
            209 83 return
          </CharString>
          <CharString index="591">
            674.9799957275391 rmoveto
            -12 -104 rlineto
            279 callgsubr
            88 return
          </CharString>
          <CharString index="592">
            hhcurveto
            292 186 139 175 -58 callgsubr
            hvcurveto
            return
          </CharString>
          <CharString index="593">
            -1262.020004272461 rmoveto
            38 -87 rlineto
            503.99000549316406 hlineto
            return
          </CharString>
          <CharString index="594">
            12 389 callgsubr
            rlineto
            -328.00999450683594 hlineto
            -256 return
          </CharString>
          <CharString index="595">
            1651 43 hstem
            215.97999572753906 220.00999450683594 return
          </CharString>
          <CharString index="596">
            hlineto
            -36 -79.99000549316406 -86 -143.02000427246094 -41 -65 return
          </CharString>
          <CharString index="597">
            -150 -109.02000427246094 -176 return
          </CharString>
          <CharString index="598">
            rlineto
            511 hlineto
            -22 callgsubr
            return
          </CharString>
          <CharString index="599">
            438 431 callgsubr
            251 return
          </CharString>
          <CharString index="600">
            650 807 -57 60 rlineto
            return
          </CharString>
          <CharString index="601">
            184 429 callsubr
            return
          </CharString>
          <CharString index="602">
            257 callgsubr
            -41 hvcurveto
            return
          </CharString>
          <CharString index="603">
            -24 23 55 -13 64 hhcurveto
            return
          </CharString>
          <CharString index="604">
            165 -24 165 hstemhm
            return
          </CharString>
          <CharString index="605">
            -39 callgsubr
            hvcurveto
            return
          </CharString>
          <CharString index="606">
            530 rrcurveto
            370 -6 return
          </CharString>
          <CharString index="607">
            -20 -28 callsubr
            return
          </CharString>
          <CharString index="608">
            -48 27 -268 -42 return
          </CharString>
          <CharString index="609">
            864.9900054931641 return
          </CharString>
          <CharString index="610">
            392.99000549316406 return
          </CharString>
          <CharString index="611">
            134.97999572753906 return
          </CharString>
          <CharString index="612">
            122.49000549316406 return
          </CharString>
          <CharString index="613">
            225.99000549316406 return
          </CharString>
          <CharString index="614">
            -212.99000549316406 return
          </CharString>
          <CharString index="615">
            -99.99000549316406 return
          </CharString>
          <CharString index="616">
            87 452 callgsubr
            return
          </CharString>
          <CharString index="617">
            80.02000427246094 return
          </CharString>
          <CharString index="618">
            0 505 callsubr
            359 callsubr
            return
          </CharString>
          <CharString index="619">
            -212 319.02000427246094 462 callgsubr
            hlineto
            return
          </CharString>
          <CharString index="620">
            152 hstem
            448.97999572753906 127.5 vstem
            return
          </CharString>
          <CharString index="621">
            53 -53 64 hhcurveto
            return
          </CharString>
          <CharString index="622">
            163 callgsubr
            -111.989990234375 43 return
          </CharString>
          <CharString index="623">
            hhcurveto
            209 106 -213 -325.02000427246094 6 hvcurveto
            return
          </CharString>
          <CharString index="624">
            140 555 callsubr
            return
          </CharString>
          <CharString index="625">
            rmoveto
            -36 70 115 -50.970001220703125 190 hhcurveto
            return
          </CharString>
          <CharString index="626">
            217 callgsubr
            273 rlineto
            return
          </CharString>
          <CharString index="627">
            -99 353 callsubr
            -150 return
          </CharString>
          <CharString index="628">
            -161 -180 -51 36 -89 rcurveline
            return
          </CharString>
          <CharString index="629">
            934.9900054931641 786 hstem
            return
          </CharString>
          <CharString index="630">
            rlineto
            180 74 211 164 return
          </CharString>
          <CharString index="631">
            hstem
            28 1591.990005493164 vstem
            return
          </CharString>
          <CharString index="632">
            230.99000549316406 return
          </CharString>
          <CharString index="633">
            654.9900054931641 return
          </CharString>
          <CharString index="634">
            251.99000549316406 return
          </CharString>
          <CharString index="635">
            -52.99000549316406 return
          </CharString>
          <CharString index="636">
            259.99000549316406 return
          </CharString>
          <CharString index="637">
            -66.00999450683594 return
          </CharString>
          <CharString index="638">
            -1481.990005493164 return
          </CharString>
          <CharString index="639">
            156.99000549316406 return
          </CharString>
          <CharString index="640">
            -25 302 callsubr
            return
          </CharString>
          <CharString index="641">
            123 -58.96000671386719 -102 callgsubr
            return
          </CharString>
          <CharString index="642">
            11 rlineto
            17 28 37 5 24 -28 callsubr
            return
          </CharString>
          <CharString index="643">
            406 callgsubr
            83.00999450683594 return
          </CharString>
          <CharString index="644">
            83 callgsubr
            -13 296 callgsubr
            return
          </CharString>
          <CharString index="645">
            13 303 callgsubr
            return
          </CharString>
          <CharString index="646">
            hlineto
            56 callgsubr
            return
          </CharString>
          <CharString index="647">
            rcurveline
            -51 callgsubr
            return
          </CharString>
          <CharString index="648">
            -53 hhcurveto
            -189 -191 return
          </CharString>
          <CharString index="649">
            442.97999572753906 rmoveto
            return
          </CharString>
          <CharString index="650">
            -1280.990005493164 rlineto
            return
          </CharString>
          <CharString index="651">
            -381.99000549316406 rlineto
            return
          </CharString>
          <CharString index="652">
            51 callgsubr
            rlineto
            return
          </CharString>
          <CharString index="653">
            -59 508 callgsubr
            return
          </CharString>
          <CharString index="654">
            265.00999450683594 -4 return
          </CharString>
          <CharString index="655">
            rlineto
            122 hlineto
            return
          </CharString>
          <CharString index="656">
            87 626.9900054931641 -12 callsubr
            return
          </CharString>
          <CharString index="657">
            165.989990234375 194 callgsubr
            return
          </CharString>
          <CharString index="658">
            181 callgsubr
            hstem
            return
          </CharString>
          <CharString index="659">
            106.010009765625 501 callgsubr
            return
          </CharString>
          <CharString index="660">
            hstemhm
            69 callgsubr
            236 callgsubr
            return
          </CharString>
          <CharString index="661">
            hmoveto
            -64 -34 callgsubr
            514 callsubr
            return
          </CharString>
          <CharString index="662">
            hstemhm
            323 callsubr
            165 callsubr
            return
          </CharString>
          <CharString index="663">
            hstemhm
            532 callsubr
            388 callsubr
            return
          </CharString>
          <CharString index="664">
            120 callsubr
            160 return
          </CharString>
          <CharString index="665">
            3 callsubr
            80 hhcurveto
            return
          </CharString>
          <CharString index="666">
            319 callsubr
            -19 return
          </CharString>
          <CharString index="667">
            101 500 callsubr
            return
          </CharString>
          <CharString index="668">
            -228.99000549316406 return
          </CharString>
          <CharString index="669">
            44.02000427246094 return
          </CharString>
          <CharString index="670">
            79.00999450683594 return
          </CharString>
          <CharString index="671">
            25.009994506835938 return
          </CharString>
          <CharString index="672">
            352.00999450683594 return
          </CharString>
          <CharString index="673">
            261.97999572753906 return
          </CharString>
          <CharString index="674">
            212.99000549316406 return
          </CharString>
          <CharString index="675">
            -268.97999572753906 return
          </CharString>
          <CharString index="676">
            410.00999450683594 return
          </CharString>
          <CharString index="677">
            hstem
            92 216 return
          </CharString>
          <CharString index="678">
            1576 rmoveto
            return
          </CharString>
          <CharString index="679">
            147 callgsubr
            57 callgsubr
            return
          </CharString>
          <CharString index="680">
            -1280 68 callgsubr
            return
          </CharString>
          <CharString index="681">
            50 43.99000549316406 38 65 -1 rlinecurve
            return
          </CharString>
          <CharString index="682">
            522 callgsubr
            1 63 return
          </CharString>
          <CharString index="683">
            -23 46 callsubr
            520 140 return
          </CharString>
          <CharString index="684">
            28 -1 476.02000427246094 -12 319 return
          </CharString>
          <CharString index="685">
            -168 -72 callsubr
            rlineto
            endchar
          </CharString>
          <CharString index="686">
            -146 -72 callsubr
            rlineto
            endchar
          </CharString>
        <CharString name=".notdef">
          590 0 218.99000549316406 973.989990234375 223 hstem
          227.97999572753906 229 960.010009765625 227 vstem
          227.97999572753906 1415.990005493164 rmoveto
          -1415.990005493164 1416.009994506836 1415.990005493164 -1416.009994506836 vlineto
          358.00999450683594 -1197 rmoveto
          -128 144 357.99000549316406 342 -358.99000549316406 363.00999450683594 123 -23 callgsubr
          356.99000549316406 -367.99000549316406 565 callsubr
          366 128 -124 -363.00999450683594 -357.99000549316406 363.00999450683594 -368 -122 -122 -362 368 -347 -368 rlineto
          endchar
        </CharString>
        <CharString name="A">
          -60 callsubr
          180 callgsubr
          hintmask 11011000
          715 1521.990005493164 -101 callgsubr
          hintmask 11101000
          11 callsubr
          hintmask 11011000
          194 callsubr
          endchar
        </CharString>
        <CharString name="AE">
          94 callgsubr
          440 callgsubr
          hintmask 11101100
          704.9799957275391 87 -69 callsubr
          hintmask 11110100
          141 callgsubr
        </CharString>
        <CharString name="AEacute">
          94 callgsubr
          261 callgsubr
          440 callgsubr
          hintmask 11101110
          1119.990005493164 -62 callsubr
          -126 21 callgsubr
          -415 -1571.990005493164 -69 callsubr
          hintmask 11110110
          141 callgsubr
        </CharString>
        <CharString name="Aacute">
          -60 callsubr
          137 43 180 callgsubr
          hintmask 11011100
          747.9900054931641 -62 callsubr
          322 callgsubr
          21 callgsubr
          -33 306 callgsubr
          -101 callgsubr
          hintmask 11101100
          11 callsubr
          hintmask 11011100
          194 callsubr
          endchar
        </CharString>
        <CharString name="Abreve">
          -60 callsubr
          106 335 callgsubr
          hstemhm
          551.9900054931641 92 callsubr
          hintmask 11011100
          75 callgsubr
          163 -412 -101 callgsubr
          hintmask 11101100
          11 callsubr
          hintmask 11011100
          194 callsubr
          endchar
        </CharString>
        <CharString name="Acircumflex">
          -60 callsubr
          328 264 callgsubr
          180 callgsubr
          hintmask 11011100
          499 67 callgsubr
          216 -14 callgsubr
          -101 callgsubr
          hintmask 11101100
          11 callsubr
          hintmask 11011100
          194 callsubr
          endchar
        </CharString>
        <CharString name="Adieresis">
          -68 callsubr
        </CharString>
        <CharString name="Agrave">
          -60 callsubr
          137 43 180 callgsubr
          hintmask 11011100
          491.99000549316406 20 callsubr
          68.00999450683594 39 callgsubr
          223 -357.99000549316406 -101 callgsubr
          hintmask 11101100
          11 callsubr
          hintmask 11011100
          194 callsubr
          endchar
        </CharString>
        <CharString name="Amacron">
          -60 callsubr
          206.00999450683594 154 callgsubr
          180 callgsubr
          hintmask 11011100
          593 84 callsubr
          122 -357.99000549316406 -101 callgsubr
          hintmask 11101100
          11 callsubr
          hintmask 11011100
          194 callsubr
          endchar
        </CharString>
        <CharString name="Aogonek">
          60 -419 182 callsubr
          287.00999450683594 -44 callgsubr
          180 callgsubr
          -551.9999847412109 198 hintmask 11101100
          715 1521.990005493164 rmoveto
          -707.0099945068359 -1406 -118.99000549316406 -29 -61 callsubr
          474.9700012207031 hlineto
          6 216 callsubr
          29.990005493164062 150 318.02000427246094 rlineto
          567.0099945068359 hlineto
          50 callsubr
          -319 -156 -29 -5 -87 rlineto
          209 hlineto
          hintmask 11101010
          -66 -37 -68 -35 -64 387 callsubr
          130 callsubr
          4 hvcurveto
          1 63 68 66 91 -27 callgsubr
          rrcurveto
          187 hlineto
          7 87 -156 9 callgsubr
          -253 1403 rlineto
          hintmask 11101100
          -204.99000549316406 hlineto
          -307.02000427246094 -965 rmoveto
          hintmask 11110100
          11 callsubr
          hintmask 11101100
          194 callsubr
          endchar
        </CharString>
        <CharString name="Aring">
          60 0 87 347.99000549316406 122 1353.989990234375 90 hstem
          535.9799957275391 80 callgsubr
          340.99000549316406 6 callgsubr
          vstem
          709 1509.990005493164 rmoveto
          -701.0099945068359 -1394 -118.99000549316406 -29 -61 callsubr
          474.9700012207031 hlineto
          6 216 callsubr
          29.990005493164062 150 318.02000427246094 rlineto
          567.0099945068359 hlineto
          50 callsubr
          -319 -156 -29 -5 -87 rlineto
          514.9900054931641 hlineto
          7 87 -156 9 callgsubr
          -251 1390 rlineto
          129 31 46 callsubr
          89.99000549316406 151 vvcurveto
          126.02000427246094 -103 94 -174 -160.99000549316406 -190.02000427246094 -101 -171 -105.99000549316406 59 -82 114.02000427246094 -31 vhcurveto
          431 callgsubr
          262 rmoveto
          -132 -88 -55 -100 -97 91 callgsubr
          69 86 106 93 65 98 307 callgsubr
          -85 callgsubr
          -63 -76 vhcurveto
          -613 -1215 rmoveto
          11 callsubr
          194 callsubr
          endchar
        </CharString>
        <CharString name="Atilde">
          -60 callsubr
          142.989990234375 165 -24 165 180 callgsubr
          hintmask 00000000
          hintmask 11010110
          488.97999572753906 319 callgsubr
          38.02000427246094 574 callsubr
          hintmask 11011010
          64 callsubr
          hintmask 11010110
          442 callsubr
          352 callsubr
          90 callsubr
          519 callgsubr
          hintmask 11011010
          309 callgsubr
          -279 -101 callgsubr
          hintmask 11101010
          11 callsubr
          hintmask 11011010
          194 callsubr
          endchar
        </CharString>
        <CharString name="B">
          -79 callgsubr
        </CharString>
        <CharString name="C">
          225 callgsubr
          hstem
          92 216 vstem
          833.9900054931641 1537.990005493164 -99 callgsubr
        </CharString>
        <CharString name="CR">
          endchar
        </CharString>
        <CharString name="Cacute">
          225 callgsubr
          121.010009765625 43 570 callsubr
          vstem
          717.9900054931641 -62 callsubr
          322 callgsubr
          21 callgsubr
          116 -121 -99 callgsubr
        </CharString>
        <CharString name="Ccaron">
          225 callgsubr
          85.010009765625 547 callgsubr
          92 216 vstem
          500 14 callsubr
          333.99000549316406 -405.00999450683594 -99 callgsubr
        </CharString>
        <CharString name="Ccedilla">
          -66 callsubr
        </CharString>
        <CharString name="Ccircumflex">
          225 callgsubr
          312.010009765625 375 callgsubr
          92 216 vstem
          468.99000549316406 1681.979995727539 rmoveto
          63 -58 324 226.02000427246094 239 -227 71 -8 callgsubr
          365 -144 -99 callgsubr
        </CharString>
        <CharString name="Cdotaccent">
          225 callgsubr
          150 459 callgsubr
          92 216 384.97999572753906 336 callgsubr
          vstem
          692.9799957275391 157 callsubr
          266 callgsubr
          81 callgsubr
          29 callgsubr
          141 -266 -99 callgsubr
        </CharString>
        <CharString name="D">
          152 233 callgsubr
          hstemhm
          1160.990005493164 210 hintmask 00000000
          hintmask 01011000
          448 callsubr
          87 177 callsubr
          hintmask 10011000
          10 callgsubr
          hintmask 01101000
          51 callsubr
          rlineto
          hintmask 01011000
          142 callsubr
          hintmask 10011000
          513 1314 167 callsubr
        </CharString>
        <CharString name="DC1">
          endchar
        </CharString>
        <CharString name="DC2">
          endchar
        </CharString>
        <CharString name="DC3">
          endchar
        </CharString>
        <CharString name="DC4">
          endchar
        </CharString>
        <CharString name="DEL">
          endchar
        </CharString>
        <CharString name="DLE">
          endchar
        </CharString>
        <CharString name="Dcaron">
          150 233 callgsubr
          85.010009765625 166 callgsubr
          hstemhm
          1152 505 callgsubr
          hintmask 10011100
          494 14 callsubr
          hintmask 01011100
          -467 -1856 417 callsubr
          hintmask 10011100
          209 callgsubr
          hintmask 01101100
          312 callgsubr
          hintmask 01011100
          441 callsubr
          hintmask 10011100
          113 callgsubr
        </CharString>
        <CharString name="Dcroat">
          149 -63 callsubr
        </CharString>
        <CharString name="E">
          -50 0 -70 callgsubr
          149 callgsubr
          448 callsubr
          87 rmoveto
          -11 -87 rlineto
          1050.009994506836 -103 callsubr
        </CharString>
        <CharString name="Eacute">
          -50 0 -70 callgsubr
          137.010009765625 43 149 callgsubr
          681.9799957275391 1658.979995727539 rmoveto
          65 65 callgsubr
          -276.00999450683594 -342.02000427246094 rlineto
          -646 -1571.990005493164 rmoveto
          -11 -87 rlineto
          1050.009994506836 -103 callsubr
        </CharString>
        <CharString name="Ebreve">
          -50 0 -70 callgsubr
          552 callsubr
          485.99000549316406 92 callsubr
          391.99998474121094 161.99000549316406 vstem
          485.99000549316406 1933.990005493164 rmoveto
          -150 83 -156 208 177 152.99000549316406 186 146 callsubr
          vhcurveto
          -105 hlineto
          -79 -22 402 callsubr
          -5 callgsubr
          122 callsubr
          -450.00999450683594 -1846.990005493164 rmoveto
          -11 -87 rlineto
          1050.009994506836 -103 callsubr
        </CharString>
        <CharString name="Ecaron">
          -50 0 -70 callgsubr
          101.010009765625 144.99000549316406 149 callgsubr
          463.99000549316406 8 callgsubr
          -428.00999450683594 -1856 rmoveto
          -11 -87 rlineto
          1050.009994506836 -103 callsubr
        </CharString>
        <CharString name="Ecircumflex">
          -50 0 -70 callgsubr
          328.010009765625 150.99000549316406 149 callgsubr
          432.99000549316406 160 callgsubr
          238.97999572753906 -227 71 -8 callgsubr
          -397 -1594.990005493164 rmoveto
          -11 -87 rlineto
          1050.009994506836 -103 callsubr
        </CharString>
        <CharString name="Edieresis">
          -50 0 -70 callgsubr
          443 callsubr
          hstemhm
          457.99000549316406 -2 callsubr
          -153.010009765625 161.99000549316406 hintmask 11111010
          457.99000549316406 369 callsubr
          9 callsubr
          99 callsubr
          266 callgsubr
          37 callsubr
          -841.0099945068359 24 callgsubr
        </CharString>
        <CharString name="Edotaccent">
          -50 0 -70 callgsubr
          166 459 callgsubr
          657.9799957275391 336 callgsubr
          62.99000549316406 161.99000549316406 vstem
          657.9799957275391 157 callsubr
          -68 -78 29 callgsubr
          -622 -1716.990005493164 rmoveto
          -11 -87 rlineto
          1050.009994506836 -103 callsubr
        </CharString>
        <CharString name="Egrave">
          -50 0 -70 callgsubr
          137.010009765625 43 149 callgsubr
          425.97999572753906 184 callgsubr
          -390 510 callgsubr
          rmoveto
          -11 -87 rlineto
          1050.009994506836 -103 callsubr
        </CharString>
        <CharString name="Emacron">
          -50 0 -70 callgsubr
          206.02000427246094 154 callgsubr
          149 callgsubr
          565 callgsubr
          84 callsubr
          -491.00999450683594 510 callgsubr
          rmoveto
          -11 -87 rlineto
          1050.009994506836 -103 callsubr
        </CharString>
        <CharString name="Eng">
          236 422 callgsubr
          120 callsubr
          1521 vstem
          38.99000549316406 87 rmoveto
          -8 -87 rlineto
          466 hlineto
          50 callgsubr
          -83 callsubr
          -156.02000427246094 29 121.02000427246094 1153 58 -185 477 -1084.990005493164 -24 -140 -146 -93 -139 -48 rlinecurve
          36 70 callgsubr
          191 35 239.99000549316406 95.99000549316406 351 callgsubr
          239 rlinecurve
          198.99000549316406 378 callgsubr
          145 23 10.009994506835938 -95 callsubr
          -449 -96 callsubr
          141 -22 -135 -1168 -61 69 callgsubr
          -472.99000549316406 1096.009994506836 rlineto
          -349 303 callsubr
          152.99000549316406 -23 -175 -1282.990005493164 305 callgsubr
          endchar
        </CharString>
        <CharString name="Eogonek">
          -49 -419 182 callsubr
          287.00999450683594 -70 callgsubr
          hstem
          612.9799957275391 198 181 161.99000549316406 vstem
          448 callsubr
          87 478 callgsubr
          827 hlineto
          -65 -37 -69 -35 -64 387 callsubr
          533 callsubr
          -32 callsubr
          50 callsubr
          -73 108.02000427246094 hhcurveto
          121 callgsubr
          83 49 -39 callsubr
          54 hvcurveto
          292 callgsubr
          95 rlineto
          172 callgsubr
          91 callgsubr
          12 callgsubr
          69 callsubr
          -37 hhcurveto
          -23 -34 575 callsubr
          69 66 91 -27 callgsubr
          rrcurveto
          103.02000427246094 -103 callsubr
        </CharString>
        <CharString name="Eth">
          148 -63 callsubr
        </CharString>
        <CharString name="Euro">
          106 3 callsubr
          -37 callsubr
          280 callsubr
          272.52000427246094 220.49000549316406 182 callsubr
          199.00999450683594 48 callsubr
          394.00999450683594 -37 callsubr
          hstemhm
          506 callsubr
          204 -183 243 callgsubr
          hintmask 00000000
          hintmask 10111010
          98 callgsubr
          1024.979995727539 rmoveto
          -19 83 callsubr
          rlineto
          158 hlineto
          hintmask 10111100
          -13 -63 -7.9900054931640625 530 callsubr
          -3 -70 rrcurveto
          -182 hlineto
          -15 -131.99000549316406 rlineto
          200 hlineto
          -292 22 135 -286.97999572753906 310.99000549316406 hhcurveto
          139 109.02000427246094 34.970001220703125 564 callsubr
          129 callgsubr
          hvcurveto
          hintmask 01111100
          49 13 42 10 39 -3 callsubr
          46 272.02000427246094 rcurveline
          -121 1 rlineto
          hintmask 10111100
          291 callsubr
          -137 rlineto
          146 callgsubr
          -50 474 callsubr
          -30 309 callsubr
          hhcurveto
          -197 -89 178 282.00999450683594 -88 callgsubr
          hvcurveto
          535 hlineto
          471 callsubr
          182 callsubr
          rlineto
          -547 hlineto
          3 70 6 67.02000427246094 10 61.99000549316406 rrcurveto
          575 hlineto
          -22 callgsubr
          48 callsubr
          rlineto
          -567.0099945068359 hlineto
          247 82 callsubr
          324 callgsubr
          147 197.02000427246094 hhcurveto
          146.99000549316406 69 406 callsubr
          -51 callgsubr
          351 callgsubr
          hvcurveto
          28 -107 rlineto
          109 hlineto
          54 223 -17 4 280 callsubr
          50 callgsubr
          -23.990005493164062 6.9900054931640625 rlinecurve
          23 -72 -86 31.009994506835938 -156.02000427246094 hhcurveto
          hintmask 10111010
          -279 -256 -192 -321 152 callgsubr
          hvcurveto
          -175 hlineto
          endchar
        </CharString>
        <CharString name="F">
          381 callsubr
          hstem
          28 1171.979995727539 vstem
          448 callsubr
          87.97999572753906 44 callgsubr
        </CharString>
        <CharString name="G">
          7 callsubr
          341 callsubr
          839.9900054931641 1537.990005493164 -106 callsubr
          endchar
        </CharString>
        <CharString name="Gbreve">
          7 callsubr
          90.010009765625 501 callgsubr
          165 callgsubr
          -6 callgsubr
          237.02000427246094 92 callsubr
          vstem
          75 callgsubr
          287.99000549316406 -396 -106 callsubr
          endchar
        </CharString>
        <CharString name="Gcaron">
          7 callsubr
          85.010009765625 144.99000549316406 341 callsubr
          530.9799957275391 114 callsubr
          309 -405.00999450683594 -106 callsubr
          endchar
        </CharString>
        <CharString name="Gcircumflex">
          7 callsubr
          312.010009765625 150.99000549316406 341 callsubr
          500 359 callgsubr
          323.99000549316406 211 callsubr
          512 callsubr
          -308 -319.02000427246094 rlineto
          339.99000549316406 -144 -106 callsubr
          endchar
        </CharString>
        <CharString name="Gcommaaccent">
          63 295 callsubr
          460 171 callsubr
          496.47999572753906 125.5 696 118 hstem
          165 callgsubr
          -6 callgsubr
          266.02000427246094 243 callgsubr
          vstem
          839.9900054931641 1537.990005493164 -106 callsubr
          -333.99000549316406 -2056.990005493164 rmoveto
          14 callgsubr
          207 callgsubr
          -59 -46.99000549316406 275 callsubr
          -55 callgsubr
          vlineto
          endchar
        </CharString>
        <CharString name="Gdotaccent">
          7 callsubr
          150 459 callgsubr
          165 callgsubr
          -6 callgsubr
          409.00999450683594 256 callsubr
          vstem
          723.9900054931641 49 callsubr
          82 116 callsubr
          327 callgsubr
          -68 81 callgsubr
          29 callgsubr
          116 -266 -106 callsubr
          endchar
        </CharString>
        <CharString name="Gtilde">
          7 callsubr
          127 497 callsubr
          165 callgsubr
          557 callgsubr
          hintmask 11101100
          489.97999572753906 319 callgsubr
          38 50 44 38 65 -1 rlinecurve
          hintmask 11110100
          64 callsubr
          hintmask 11101100
          57 callsubr
          472 callgsubr
          508 callgsubr
          352 callsubr
          90 callsubr
          138 callsubr
          -86 280 callsubr
          hvcurveto
          hintmask 11110100
          350 -263 -106 callsubr
          endchar
        </CharString>
        <CharString name="H">
          256 224 callsubr
          458 callgsubr
          875.9900054931641 87.97999572753906 376 callsubr
          -9 callgsubr
          518 hlineto
          473 callsubr
          87 -152 120 callsubr
          -74 callgsubr
          -35 callgsubr
          rlineto
          endchar
        </CharString>
        <CharString name="HT">
          endchar
        </CharString>
        <CharString name="Hbar">
          256 0 87 534.9900054931641 -12 callsubr
          239.99998474121094 130 299 101 hstem
          18.979995727539062 1542 vstem
          866.9799957275391 499 callgsubr
          178 callsubr
          518 hlineto
          9 87 -151 120 callsubr
          109.02000427246094 874 rlineto
          204 hlineto
          112 callgsubr
          130 rlineto
          -202 hlineto
          35 275.99000549316406 139 5 callgsubr
          -495 274 callgsubr
          151 -23 -35 410 callsubr
          rlineto
          -650 hlineto
          35 275.99000549316406 2 callgsubr
          244 callgsubr
          371 callsubr
          -23 -35 410 callsubr
          rlineto
          322 callsubr
          544 callgsubr
          -130 rlineto
          69 callgsubr
          hlineto
          -110 -875 465 callgsubr
          510.02000427246094 hlineto
          7.9900054931640625 -83 callsubr
          -157 29 63 505.02000427246094 rlineto
          651 hlineto
          -63 -504.00999450683594 -164 -30 rlineto
          -407 664 rmoveto
          30 240 rlineto
          650.0200042724609 hlineto
          -30 -240 rlineto
          -650.0200042724609 hlineto
          endchar
        </CharString>
        <CharString name="Hcircumflex">
          256 224 callsubr
          368 callgsubr
          28 1525.979995727539 vstem
          563 67 callgsubr
          313 -1594 376 callsubr
          -9 callgsubr
          518 hlineto
          473 callsubr
          87 -152 120 callsubr
          -74 callgsubr
          -35 callgsubr
          rlineto
          endchar
        </CharString>
        <CharString name="I">
          -574 575 callgsubr
          687 vstem
          96 callgsubr
          87 -105 callsubr
          endchar
        </CharString>
        <CharString name="IJ">
          152 575 callgsubr
          1409 vstem
          96 callgsubr
          87 -9 callsubr
        </CharString>
        <CharString name="IJ_acutecomb">
          152 27 callgsubr
          261 callgsubr
          -41 43 hstemhm
          28 1429.990005493164 hintmask 11011000
          1055.990005493164 414 callsubr
          -126 121 -276.00999450683594 -342 rlineto
          hintmask 11101000
          -629 -2 235 callgsubr
          95.99000549316406 35.99000549316406 189 122 52 111 rlinecurve
          322 callgsubr
          21 callgsubr
          -390 -1571.990005493164 -9 callsubr
        </CharString>
        <CharString name="Iacute">
          -574 27 callgsubr
          444 callgsubr
          28 800.9900054931641 vstem
          426.99000549316406 -62 callsubr
          322 callgsubr
          21 callgsubr
          -390 -1571.990005493164 -105 callsubr
          endchar
        </CharString>
        <CharString name="Ibreve">
          -574 27 callgsubr
          552 callsubr
          525 callsubr
          92 callsubr
          vstem
          525 callsubr
          143 callgsubr
          -194 -1846.990005493164 -105 callsubr
          endchar
        </CharString>
        <CharString name="Icircumflex">
          -574 27 callgsubr
          368 callgsubr
          28 846.9900054931641 vstem
          446 callsubr
          1681.979995727539 rmoveto
          63 -58 324 226.02000427246094 239 -227 71 -8 callgsubr
          -141 -1594.990005493164 -105 callsubr
          endchar
        </CharString>
        <CharString name="Idieresis">
          -574 27 callgsubr
          456 callsubr
          310 callgsubr
          -2 callsubr
          vstem
          203 1839.979995727539 rmoveto
          -63 52 -53 61.99000549316406 81 72.00999450683594 -58 callsubr
          -585.0099945068359 -1757 -105 callsubr
          endchar
        </CharString>
        <CharString name="Idotaccent">
          1 callsubr
        </CharString>
        <CharString name="Igrave">
          -574 27 callgsubr
          444 callgsubr
          28 687 vstem
          407 callgsubr
          20 callsubr
          80 callsubr
          39 callgsubr
          -134 510 callgsubr
          -105 callsubr
          endchar
        </CharString>
        <CharString name="Imacron">
          -574 27 callgsubr
          206.02000427246094 154 callgsubr
          hstem
          28 755.9900054931641 vstem
          271.99000549316406 201 callsubr
          -19 -151.97999572753906 rlineto
          511 hlineto
          20 154 callgsubr
          rlineto
          -512 hlineto
          -235 510 callgsubr
          -105 callsubr
          endchar
        </CharString>
        <CharString name="Iogonek">
          -574 -419 182 callsubr
          287.00999450683594 87 1333.979995727539 101 hstemhm
          -10.990005493164062 445 callgsubr
          -197.97999572753906 725.9900054931641 hintmask 11101000
          96 callgsubr
          87 405 callgsubr
          199.99000549316406 hlineto
          hintmask 11110000
          -65.99000549316406 -37 291 callsubr
          -35 -64 387 callsubr
          195 callsubr
          302 callsubr
          -3 50 callsubr
          -73 169 callgsubr
          hhcurveto
          117 183 callgsubr
          49 -39 callsubr
          53 hvcurveto
          -6 callsubr
          95 rlineto
          172 callgsubr
          433 callsubr
          12 callgsubr
          69 callsubr
          -37 hhcurveto
          -24 -33 575 callsubr
          80 callsubr
          66 448 callgsubr
          -27 callgsubr
          rrcurveto
          192 hlineto
          7.9900054931640625 -83 callsubr
          -157.97999572753906 29 162 1281 -90 callsubr
          rlineto
          hintmask 11101000
          142 callsubr
          endchar
        </CharString>
        <CharString name="Itilde">
          -574 27 callgsubr
          143 497 callsubr
          28 502 callsubr
          hintmask 00000000
          hintmask 11011000
          168 319 callgsubr
          -7 callsubr
          50 44 38 386 callsubr
          -1 rlinecurve
          hintmask 11101000
          156 callgsubr
          hintmask 11011000
          414 callgsubr
          hintmask 11101000
          -131 -1714 -105 callsubr
          endchar
        </CharString>
        <CharString name="J">
          -556 1420.979995727539 101 hstem
          -152 880.9799957275391 vstem
          366 378 callgsubr
          -41 callgsubr
        </CharString>
        <CharString name="Jcircumflex">
          -556 1420.979995727539 101 368 callgsubr
          -152 1017.9900054931641 vstem
          168.97999572753906 261 callsubr
          311 callgsubr
          225 callsubr
          512 callsubr
          -308.02000427246094 -319.02000427246094 rlineto
          197.02000427246094 -284 -41 callgsubr
        </CharString>
        <CharString name="K">
          84 575 callgsubr
          1357.979995727539 vstem
          803.9799957275391 561 callgsubr
          rmoveto
          64 -124 103.02000427246094 -221 52 -6.9799957275390625 rrcurveto
          278 hlineto
          112 callgsubr
          308 callgsubr
          -129.99000549316406 44 -42 24.990005493164062 -42 64 -119.99000549316406 198 rlinecurve
          -56 532 callgsubr
          352 callsubr
          198 -68 115 525 569 rcurveline
          104 23 112 callgsubr
          -95 callsubr
          -420 hlineto
          -11.990005493164062 -96 callgsubr
          171 callsubr
          -23 -611 -710 307 callgsubr
          710 154 167 callgsubr
          -39 callsubr
          380 182 198 54 3 callgsubr
          81 -151 50 callsubr
          -96.02000427246094 rlinecurve
          endchar
        </CharString>
        <CharString name="Kcommaaccent">
          74 556 callgsubr
          87 1333.979995727539 101 hstem
          600.9799957275391 184 vstem
          794.9900054931641 561 callgsubr
          rmoveto
          64 -124 103 -221 52 -6.9799957275390625 rrcurveto
          278 hlineto
          14 308 callgsubr
          -130 44 279 callgsubr
          24.990005493164062 -42 64 528 callgsubr
          198 rlinecurve
          -56 532 callgsubr
          -113.99000549316406 198 291 callsubr
          115 525 569 rcurveline
          104 23 244 callsubr
          -95 callsubr
          -420 -96 callsubr
          118 -23 -611 -710 89 710 2 callgsubr
          -490 -96 callsubr
          133.02000427246094 -23 476 callgsubr
          -1281 465 callgsubr
          511 392 callsubr
          48 380 182 198 51 callgsubr
          3 callgsubr
          81 -151 50 -96.02000427246094 rlinecurve
          -269 -868.9799957275391 rmoveto
          171 callgsubr
          -41 rlineto
          69 18 112 -37 callsubr
          135 callgsubr
          -131 337 callgsubr
          -34 callgsubr
          -65 rlineto
          40 -55 callsubr
          9 callgsubr
          469 callgsubr
        </CharString>
        <CharString name="L">
          365 callsubr
          hstem
          29 1081.990005493164 vstem
          96 callgsubr
          87.97999572753906 72 callsubr
        </CharString>
        <CharString name="LF">
          endchar
        </CharString>
        <CharString name="Lacute">
          365 callsubr
          139 43 hstem
          29 1081.990005493164 vstem
          410.99000549316406 414 callsubr
          -126.00999450683594 121 410 callsubr
          -342 rlineto
          -374 -1573 72 callsubr
        </CharString>
        <CharString name="Lcaron">
          365 callsubr
          hstem
          960 175.97999572753906 vstem
          914.9799957275391 1044.990005493164 rmoveto
          63 -30 82 callsubr
          80 72 151 112 callsubr
          177 rlinecurve
          473 callsubr
          313 callgsubr
          -7.9900054931640625 -75 rlinecurve
          -12 -108.00999450683594 -18 337 callgsubr
          278 callsubr
          -82 6 -25 rcurveline
          -878 -957.0099945068359 72 callsubr
        </CharString>
        <CharString name="Lcommaaccent">
          -100 556 callgsubr
          505 callsubr
          359 callsubr
          hstem
          503.99000549316406 243 callgsubr
          vstem
          96 callgsubr
          87.97999572753906 -84 callsubr
          392 -604.9700012207031 rmoveto
          129 callgsubr
          -41 rlineto
          69.02000427246094 18 353 callgsubr
          -37 callsubr
          163 vvcurveto
          94 -42 98 -81.99000549316406 18 vhcurveto
          -131 337 callgsubr
          -1 -65 rlineto
          40 -55 callsubr
          32 469 callgsubr
        </CharString>
        <CharString name="Ldot">
          -100 0 505 callsubr
          589.489990234375 276 421.510009765625 112.5 hstemhm
          29 1145.240005493164 -281.260009765625 280 hintmask 10110000
          96 callgsubr
          87.97999572753906 -84 callsubr
          hintmask 11101000
          1015.0099945068359 900.0200042724609 365 callgsubr
          82 callgsubr
          260 callgsubr
          532 callgsubr
          11 hvcurveto
          69 -63 callgsubr
          -35 58 321 callsubr
          hhcurveto
          endchar
        </CharString>
        <CharString name="Lslash">
          -100 164 callsubr
          122.50999450683594 359 callsubr
          hstem
          29 1081.990005493164 vstem
          43.99000549316406 600.9900054931641 rmoveto
          36 -118.00999450683594 158.99000549316406 67.02000427246094 55 callsubr
          -431 -148 -29 -7.9900054931640625 -88 rlineto
          451 callgsubr
          398 callgsubr
          437 -119.00999450683594 23 -139 -332 -464 -11 386 callsubr
          521.0200042724609 452.00999450683594 334 callgsubr
          -35 127 -399.00999450683594 503 callgsubr
          171 callgsubr
          615 188 23 11 101 rlineto
          -524 hlineto
          -12 -101 133 -23 -89 -708 507 callsubr
          472 callsubr
          rlineto
          endchar
        </CharString>
        <CharString name="M">
          -65 callgsubr
          533 hlineto
          50 callgsubr
          -83 callsubr
          -21 callsubr
        </CharString>
        <CharString name="N">
          252 callgsubr
          422 callsubr
          hintmask 10110000
          40 87 -87 callgsubr
          rlineto
          hintmask 11010000
          180 callsubr
          rlineto
          hintmask 10110000
          49 callgsubr
          rlineto
          hintmask 11010000
          208 callsubr
          rlineto
          hintmask 10110000
          305 callgsubr
          endchar
        </CharString>
        <CharString name="NULL">
          endchar
        </CharString>
        <CharString name="Nacute">
          252 callgsubr
          261 callgsubr
          422 callsubr
          hintmask 10111000
          790 -62 callsubr
          -126.02000427246094 121.02000427246094 -275.97999572753906 -342.02000427246094 rlineto
          -750 -1571.990005493164 -87 callgsubr
          rlineto
          hintmask 11011000
          180 callsubr
          rlineto
          hintmask 10111000
          49 callgsubr
          rlineto
          hintmask 11011000
          208 callsubr
          rlineto
          hintmask 10111000
          305 callgsubr
          endchar
        </CharString>
        <CharString name="Ncaron">
          252 callgsubr
          101.010009765625 166 callgsubr
          422 callsubr
          hintmask 10111000
          571.9900054931641 114 callsubr
          -531.9900054931641 -1856 -87 callgsubr
          rlineto
          hintmask 11011000
          180 callsubr
          rlineto
          hintmask 10111000
          49 callgsubr
          rlineto
          hintmask 11011000
          208 callsubr
          rlineto
          hintmask 10111000
          305 callgsubr
          endchar
        </CharString>
        <CharString name="Ncommaaccent">
          236 295 callsubr
          475.99000549316406 87 1310.979995727539 124 -101 101 hstemhm
          621.9900054931641 243 callgsubr
          hintmask 11011000
          40 87 -87 callgsubr
          rlineto
          hintmask 11101000
          180 callsubr
          rlineto
          hintmask 11011000
          49 callgsubr
          rlineto
          hintmask 11101000
          208 callsubr
          rlineto
          hintmask 11011000
          305 callgsubr
          506.97999572753906 -606 rmoveto
          171 callgsubr
          -72 callgsubr
          32 187 callgsubr
          207 callgsubr
          254 callgsubr
          -55 callgsubr
          vlineto
          endchar
        </CharString>
        <CharString name="Ntilde">
          252 callgsubr
          143 165 -24 165 422 callsubr
          hintmask 00000000
          hintmask 10101100
          530.9799957275391 319 callgsubr
          38.02000427246094 574 callsubr
          hintmask 10110100
          64 callsubr
          hintmask 10101100
          57 callsubr
          472 callgsubr
          508 callgsubr
          352 callsubr
          90 callsubr
          138 callsubr
          -86 280 callsubr
          hvcurveto
          hintmask 10110100
          244 callgsubr
          -1714 -87 callgsubr
          rlineto
          hintmask 11010100
          180 callsubr
          rlineto
          hintmask 10110100
          49 callgsubr
          rlineto
          hintmask 11010100
          208 callsubr
          rlineto
          hintmask 10110100
          305 callgsubr
          endchar
        </CharString>
        <CharString name="O">
          52 callsubr
          hstem
          -29 callsubr
          vstem
          811.9900054931641 1541.979995727539 -106 callgsubr
        </CharString>
        <CharString name="OE">
          806 500 callsubr
          508 callsubr
          -70 callgsubr
          -108 125 hstemhm
          165 callgsubr
          211 1548.010009765625 161.99000549316406 hintmask 00000000
          hintmask 10101100
          806.9900054931641 1538.990005493164 rmoveto
          -398 -318 -386.00999450683594 -530.9900054931641 -63 callgsubr
          hvcurveto
          -400.02000427246094 7 203 -241.99000549316406 309 hhcurveto
          202 172 106 173 118 hvcurveto
          hintmask 01101100
          -30 -258.99000549316406 rlineto
          872 hlineto
          65 299.99000549316406 -108.00999450683594 31 3 callgsubr
          -190.02000427246094 -511 -24 74 604.0200042724609 395 -17 16 386 callgsubr
          -401 -24 75 566.9900054931641 rlineto
          hintmask 01110110
          397 -15 47 -170 rlineto
          111 hlineto
          7.9900054931640625 293.00999450683594 rlineto
          -763.9900054931641 hlineto
          -35 -292 rlineto
          hintmask 10101100
          185 -72 -138 529 callgsubr
          -209 hhcurveto
          291 -674 rmoveto
          7 -440.00999450683594 -195 -326.97999572753906 -263 164 callsubr
          -245 2 354 callgsubr
          233 -7 373 rrcurveto
          397 -7 209 308.97999572753906 261 hhcurveto
          209.02000427246094 109 -163 -385.99000549316406 6 hvcurveto
          endchar
        </CharString>
        <CharString name="Oacute">
          249 callgsubr
          746.9900054931641 -62 callsubr
          322 callgsubr
          21 callgsubr
          65 -117 -106 callgsubr
        </CharString>
        <CharString name="Obreve">
          52 callsubr
          86.00999450683594 501 callgsubr
          330 callgsubr
          224.00999450683594 92 callsubr
          434.00999450683594 58 callsubr
          vstem
          550.9900054931641 143 callgsubr
          261 -392 -106 callgsubr
        </CharString>
        <CharString name="Ocircumflex">
          52 callsubr
          308.00999450683594 375 callgsubr
          -29 callsubr
          vstem
          497.99000549316406 1681.979995727539 rmoveto
          63 -58 324 226.02000427246094 239 -227 71 -8 callgsubr
          314 -140 -106 callgsubr
        </CharString>
        <CharString name="Odieresis">
          52 callsubr
          181.99998474121094 204 callgsubr
          439 callgsubr
          196.00999450683594 -2 callsubr
          -111 58 callsubr
          hintmask 11111010
          523 364 callsubr
          9 callsubr
          0 callsubr
          hintmask 11111100
          186 callgsubr
          83.99000549316406 69.02000427246094 -76 callgsubr
          hintmask 11111010
          -130 -302.02000427246094 -106 callgsubr
        </CharString>
        <CharString name="Ograve">
          249 callgsubr
          490.99000549316406 20 callsubr
          80 callsubr
          39 callgsubr
          321 -338 -106 callgsubr
        </CharString>
        <CharString name="Ohungarumlaut">
          52 callsubr
          hstem
          -29 callsubr
          vstem
          565.9900054931641 480 callsubr
          58 callgsubr
          96 callgsubr
          189 347 callsubr
          -276 382 callsubr
          67.99000549316406 392 callgsubr
          -191 -135 -106 callgsubr
        </CharString>
        <CharString name="Omacron">
          52 callsubr
          186.01998901367188 154 callgsubr
          hstem
          -29 callsubr
          vstem
          591.9900054931641 201 callsubr
          -19 -151.97999572753906 rlineto
          511 hlineto
          20 154 callgsubr
          rlineto
          -512 hlineto
          220 -338 -106 callgsubr
        </CharString>
        <CharString name="Oslash">
          107 -18 48 callgsubr
          123.00999450683594 398 callsubr
          811.9900054931641 1543.990005493164 41 callgsubr
          137 235 rcurveline
          -91 42 83 callsubr
          -218 rlineto
          30 callsubr
        </CharString>
        <CharString name="Oslashacute">
          107 -18 48 callgsubr
          115.00999450683594 43 -35 43 hstemhm
          -29 callsubr
          hintmask 00000000
          hintmask 11101100
          790 -62 callsubr
          -126.02000427246094 121.02000427246094 -275.97999572753906 -342.02000427246094 rlineto
          22 -115 41 callgsubr
          rrcurveto
          hintmask 11011100
          137 235 -91 42 83 callsubr
          -218 rlineto
          hintmask 11101100
          30 callsubr
        </CharString>
        <CharString name="Otilde">
          52 callsubr
          122.99998474121094 165 -24 165 hstemhm
          -29 callsubr
          hintmask 00000000
          hintmask 11011100
          488 319 callgsubr
          -7 callsubr
          50 44 38 386 callsubr
          -1 rlinecurve
          hintmask 11101100
          156 callgsubr
          hintmask 11011100
          414 callgsubr
          hintmask 11101100
          324 -259.00999450683594 -106 callgsubr
        </CharString>
        <CharString name="P">
          -45 callsubr
        </CharString>
        <CharString name="Q">
          107 -361 179.99000549316406 163.00999450683594 -37 callsubr
          -110.98001098632812 110.97999572753906 1317.000015258789 -23 callgsubr
          hstemhm
          115 165 callsubr
          254.25 136.74000549316406 380.99998474121094 214.00999450683594 hintmask 10111110
          808 1542.979995727539 rmoveto
          -404.00999450683594 -298 -392.99000549316406 -530 473 callsubr
          hvcurveto
          hintmask 11011110
          5 -333 147 -286.97999572753906 315.97999572753906 -18 rrcurveto
          -232 279 callgsubr
          180 -111 208 hhcurveto
          116 118 45 40 428 callsubr
          -2 callgsubr
          138.02000427246094 rlineto
          292 callgsubr
          -59 -98 -16 -54 hhcurveto
          hintmask 10111110
          -146 -129 13 158 -10 hvcurveto
          354 310 callsubr
          249 377 -7.9900054931640625 486.00999450683594 rrcurveto
          343 -6 -157 287.99000549316406 -338 hhcurveto
          511 callgsubr
          -663 rmoveto
          -450.99000549316406 56 callgsubr
          -197 -328 -262 463 callsubr
          225 321 -6 hvcurveto
          450.00999450683594 -15 callsubr
          197.02000427246094 321 566 callsubr
          hhcurveto
          209.02000427246094 105.99000549316406 -213 -325 6 hvcurveto
          endchar
        </CharString>
        <CharString name="R">
          70 0 107 callsubr
          hstemhm
          1012.9799957275391 206 hintmask 11011000
          350 callsubr
          87 18 callsubr
          hintmask 11101000
          -80 -24 callgsubr
          -16 -80 hhcurveto
          -272 34 callsubr
          hintmask 11011000
          64 callgsubr
        </CharString>
        <CharString name="RS">
          endchar
        </CharString>
        <CharString name="Racute">
          70 0 107 callsubr
          121.00999450683594 43 hstemhm
          1012.9799957275391 206 hintmask 11011100
          734.9900054931641 1658.979995727539 235 callgsubr
          96.02000427246094 125 callgsubr
          -679 -1571.990005493164 18 callsubr
          hintmask 11101100
          -80 -24 callgsubr
          -16 -80 hhcurveto
          -272 34 callsubr
          hintmask 11011100
          64 callgsubr
        </CharString>
        <CharString name="Rcaron">
          61 0 107 callsubr
          389 callgsubr
          166 callgsubr
          hstemhm
          1003.9900054931641 206 hintmask 11011100
          449.99000549316406 114 callsubr
          -403 -1856 15 callsubr
          hintmask 11101100
          -80 -80 -16 -80 hhcurveto
          -272.02000427246094 -96 callsubr
          133.02000427246094 -23 476 callgsubr
          -1281 rlineto
          hintmask 11011100
          -129 -72 callsubr
          rlineto
          619 698.9900054931641 rmoveto
          219 callgsubr
          -2 callgsubr
          -130 164 callsubr
          -46 3 84 616 rcurveline
          56 callgsubr
          44 90 315 callgsubr
        </CharString>
        <CharString name="Rcommaaccent">
          61 295 callsubr
          475.99000549316406 107 callsubr
          hstemhm
          610.9700012207031 184 209.02000427246094 206 hintmask 11101110
          46.97999572753906 87 15 callsubr
          hintmask 11110110
          -80 -80 -16 -80 hhcurveto
          -272.02000427246094 -96 callsubr
          133.02000427246094 -23 476 callgsubr
          -1281 rlineto
          hintmask 11101110
          -129 -72 callsubr
          rlineto
          619 698.9900054931641 rmoveto
          219 callgsubr
          -2 callgsubr
          -130 164 callsubr
          -46 3 84 616 rcurveline
          56 callgsubr
          44 90 76 callsubr
          -130 -1304.979995727539 rmoveto
          171 callgsubr
          -72 callgsubr
          9 callgsubr
          178 callgsubr
          -55 callgsubr
          vlineto
          endchar
        </CharString>
        <CharString name="S">
          109 callgsubr
          102 callgsubr
          95.99000549316406 346.99000549316406 24 callsubr
          -100 callgsubr
          -120 hlineto
          endchar
        </CharString>
        <CharString name="Sacute">
          109 callgsubr
          117.02000427246094 43 102 callgsubr
          617.9799957275391 1658.979995727539 rmoveto
          65 65 callgsubr
          -276.00999450683594 -342.02000427246094 rlineto
          -522 -1311.990005493164 24 callsubr
          -100 callgsubr
          -120 hlineto
          endchar
        </CharString>
        <CharString name="Scaron">
          109 callgsubr
          81.02000427246094 144.99000549316406 102 callgsubr
          399.99000549316406 8 callgsubr
          -304 -1596 24 callsubr
          -100 callgsubr
          -120 hlineto
          endchar
        </CharString>
        <CharString name="Scedilla">
          -199 332 callsubr
          279.99000549316406 92 callsubr
          1331 121 callgsubr
          553 callsubr
          12.999984741210938 124 248 310 callgsubr
          hintmask 00000000
          hintmask 11110100
          659.9900054931641 1425 rmoveto
          274 callsubr
          -22.020004272460938 -29 40 hvcurveto
          28 -180 rlineto
          108.99000549316406 hlineto
          47 263 rlineto
          37 -56 -117 -39 callsubr
          -192 hhcurveto
          -261 -226 -168.99000549316406 -246 5 395 callsubr
          -217 173.02000427246094 -127 163 57 callsubr
          138 -86 117 -93 -15 callsubr
          -161 rrcurveto
          -178.02000427246094 -10 -176 -69 -128 hhcurveto
          -80 -93 23 37 -54 hvcurveto
          -25 193 rlineto
          -120 hlineto
          -42 385 callsubr
          rlineto
          hintmask 11101100
          43 -33 147 -44.99000549316406 235 callsubr
          -9 rrcurveto
          1 -55 callsubr
          0 -88 callgsubr
          -11 325 callgsubr
          56 -12 53 hhcurveto
          159 529 callgsubr
          329 callsubr
          35 -3.0200042724609375 9 callgsubr
          -7 28 hvcurveto
          270 21.990005493164062 196 169 -5 547 callsubr
          210.99000549316406 -166 103.02000427246094 -14 callgsubr
          -10 callgsubr
          rrcurveto
          hintmask 11110100
          -144 89 -114.02000427246094 99 164 vvcurveto
          155 143.02000427246094 66 -28 callsubr
          vhcurveto
          endchar
        </CharString>
        <CharString name="Scircumflex">
          109 callgsubr
          308.02000427246094 150.99000549316406 102 callgsubr
          368.99000549316406 160 callgsubr
          238.97999572753906 -227 71 -8 callgsubr
          -273 -1334.990005493164 24 callsubr
          -100 callgsubr
          -120 hlineto
          endchar
        </CharString>
        <CharString name="Scommaaccent">
          -199 295 callsubr
          452.99000549316406 121 callgsubr
          1331.010009765625 121 callgsubr
          553 callsubr
          32.00999450683594 243 callgsubr
          168.99998474121094 310 callgsubr
          hintmask 11110100
          95.99000549316406 346.99000549316406 24 callsubr
          -100 callgsubr
          -120 hlineto
          258.00999450683594 -865.9900054931641 rmoveto
          hintmask 11111100
          0 callgsubr
          hintmask 11110100
          -55 callgsubr
          vlineto
          endchar
        </CharString>
        <CharString name="T">
          -48 0 516 callgsubr
          1133.479995727539 107.5 vstem
          236 callgsubr
          308 callgsubr
          -76 callsubr
          endchar
        </CharString>
        <CharString name="Tbar">
          -48 0 105.49000549316406 614.5 48 callsubr
          552.9999847412109 118 340 callsubr
          432 callsubr
          850.9799957275391 rmoveto
          -16 83 callsubr
          rlineto
          240 hlineto
          -76 -603.0099945068359 -244 -23 253 callsubr
          700 241 callgsubr
          77 603.0099945068359 rlineto
          297 hlineto
          15.990005493164062 48 callsubr
          rlineto
          -296 hlineto
          116 callsubr
          563 321 -21 -7 -342 rlineto
          111 hlineto
          82 callsubr
          471 rlineto
          -1148.009994506836 hlineto
          -77 -471 116 2 1 callgsubr
          341 315.97999572753906 -58 callgsubr
          54 callgsubr
          -563 rlineto
          -241 hlineto
          endchar
        </CharString>
        <CharString name="Tcaron">
          -48 0 228 callgsubr
          101.010009765625 144.99000549316406 340 callsubr
          451.99000549316406 8 callgsubr
          -250 -1849.020004272461 -76 callsubr
          endchar
        </CharString>
        <CharString name="Thorn">
          -46 0 87 224.99000549316406 46 callsubr
          668.0099945068359 -37 callsubr
          215.99998474121094 -21 callgsubr
          hstem
          993.9900054931641 204 vstem
          470 callsubr
          565 callgsubr
          212 callgsubr
          -174 29 24.990005493164062 198 rlineto
          -32 callsubr
          36 51 0 87 hhcurveto
          344 266.02000427246094 204 314 444 callsubr
          -152 140 -305.00999450683594 -70 -77 -5 -12 -70 hvcurveto
          27.009994506835938 210 96 callsubr
          23 11 -21 callgsubr
          rlineto
          244 callgsubr
          hlineto
          -12 57 callsubr
          133 -23 -160.99000549316406 -1288 116 callgsubr
          rlineto
          471 987 rmoveto
          11 50 60 56 callgsubr
          82 callsubr
          hhcurveto
          244 92 callgsubr
          -98.02000427246094 -208 4.0200042724609375 hvcurveto
          -205.99000549316406 -3 callsubr
          -133 -156.02000427246094 -278 hhcurveto
          -47 -53 3 8 -57 hvcurveto
          80 638 rlineto
          endchar
        </CharString>
        <CharString name="U">
          149 callsubr
          271 callsubr
          152.99000549316406 593 -105 callgsubr
        </CharString>
        <CharString name="US">
          endchar
        </CharString>
        <CharString name="Uacute">
          149 callsubr
          137.010009765625 43 271 callsubr
          733 1658.979995727539 rmoveto
          386 callsubr
          65 callgsubr
          410 callsubr
          -342.02000427246094 rlineto
          -580.0099945068359 -1065.990005493164 -105 callgsubr
        </CharString>
        <CharString name="Ubreve">
          149 callsubr
          552 callsubr
          119 callgsubr
          185.99998474121094 293 callgsubr
          vstem
          536.9900054931641 1933.990005493164 rmoveto
          -150 83 -156 208 177 152.99000549316406 186 146 callsubr
          vhcurveto
          -104.99000549316406 hlineto
          -79 -22.020004272460938 402 callsubr
          -39 callgsubr
          513 callgsubr
          -1 69 callsubr
          -16 vvcurveto
          -384 -1340.990005493164 -105 callgsubr
        </CharString>
        <CharString name="Ucircumflex">
          149 callsubr
          328.010009765625 150.99000549316406 271 callsubr
          483.97999572753906 160 callgsubr
          239 -227 71 58.99000549316406 -212 319.02000427246094 rlineto
          -177 hlineto
          -308 -319.02000427246094 rlineto
          -331 -1088.990005493164 -105 callgsubr
        </CharString>
        <CharString name="Udieresis">
          149 callsubr
          456 callsubr
          119 callgsubr
          157.99998474121094 -2 callsubr
          vstem
          508.99000549316406 45 callsubr
          62 81.02000427246094 116 callsubr
          99 callsubr
          266 callgsubr
          -76 -69.97999572753906 -80.02000427246094 vhcurveto
          87 callgsubr
          -775 -1251 -105 callgsubr
        </CharString>
        <CharString name="Ugrave">
          149 callsubr
          137.010009765625 43 271 callsubr
          477 188 callgsubr
          -324.00999450683594 -1286.990005493164 -105 callgsubr
        </CharString>
        <CharString name="Uhungarumlaut">
          149 callsubr
          271 callsubr
          552 1676.979995727539 rmoveto
          58 callgsubr
          -65.99000549316406 85 96 callgsubr
          189 347 callsubr
          410 callsubr
          397 callgsubr
          437 hmoveto
          509 callgsubr
          -65.99000549316406 94 -7 callsubr
          156 116 80 callsubr
          116 rlinecurve
          -136 378 callsubr
          410 callsubr
          397 callgsubr
          -836.0099945068359 -1083.990005493164 -105 callgsubr
        </CharString>
        <CharString name="Umacron">
          149 callsubr
          206.02000427246094 154 callgsubr
          271 callsubr
          577.9900054931641 201 callsubr
          -19 -151.97999572753906 rlineto
          511.02000427246094 hlineto
          -58 callgsubr
          154 callgsubr
          rlineto
          -512 hlineto
          -425 -1286.990005493164 -105 callgsubr
        </CharString>
        <CharString name="Uogonek">
          100 -419 182 callsubr
          267.00999450683594 111 1330.979995727539 100 hstem
          119 callgsubr
          9 callsubr
          198 vstem
          152.99000549316406 593 rmoveto
          -6 -59 -2 callgsubr
          -54 -52 vvcurveto
          -275 5 158.99000549316406 -172.99000549316406 292 8 7.9900054931640625 1 8 hhcurveto
          -54 83 callgsubr
          -42 callsubr
          -37 -52 -69 -25 -33 -14 336 callsubr
          -2 callgsubr
          -41 rrcurveto
          -65 -3 50.02000427246094 492 callgsubr
          -24 callsubr
          49 -39 callsubr
          53 hvcurveto
          292 callgsubr
          95 rlineto
          172 callgsubr
          -56 -38 69 callsubr
          -51 callgsubr
          hhcurveto
          -23 280 callsubr
          255 callgsubr
          65 3 hvcurveto
          164 callsubr
          45 56 76 69 -27 callgsubr
          252.99000549316406 47 154 186.97999572753906 51 400.02000427246094 320 callsubr
          rcurveline
          124 5 callgsubr
          -434 hlineto
          -11.020004272460938 254 callsubr
          -24 -103 -770.9900054931641 rlineto
          -349 -40 -133 -186 -227 hhcurveto
          -174 -103.02000427246094 112 215 -3.9900054931640625 hvcurveto
          -1 57 4.0200042724609375 62 7.9900054931640625 73.99000549316406 104 786 rcurveline
          153 25 11 100 rlineto
          244 callgsubr
          hlineto
          -12 -100 133 -24 -107 -804.9900054931641 rlineto
          endchar
        </CharString>
        <CharString name="Uring">
          149 callsubr
          5 88 296 90 hstemhm
          119 callgsubr
          174.99998474121094 166 callgsubr
          341.02000427246094 6 callgsubr
          hintmask 11011110
          525.9900054931641 1748.990005493164 rmoveto
          hintmask 10111110
          -136 98 -86 185 166 180 85 189 111 callsubr
          -103 74.02000427246094 -174 vhcurveto
          hintmask 11011110
          476 callgsubr
          -191 -81 -171 hvcurveto
          hintmask 10111110
          412 callsubr
          98 89 61 172 callgsubr
          -75 vhcurveto
          -859.0099945068359 -1199 rmoveto
          -6 -59 -2 callgsubr
          -54 -52 vvcurveto
          -275 5 158.99000549316406 -172.99000549316406 292 hhcurveto
          342 203.02000427246094 175 472 92 callgsubr
          hvcurveto
          hintmask 11011110
          320 callsubr
          124 5 callgsubr
          -434 hlineto
          -11.020004272460938 254 callsubr
          -24 -103 -770.9900054931641 rlineto
          -349 -40 -133 -186 -227 hhcurveto
          -174 -103.02000427246094 112 215 -3.9900054931640625 hvcurveto
          -1 57 4.0200042724609375 62 7.9900054931640625 73.99000549316406 104 786 rcurveline
          153 25 11 100 rlineto
          244 callgsubr
          hlineto
          -12 -100 133 -24 rlineto
          hintmask 10111110
          -107 -804.9900054931641 rlineto
          endchar
        </CharString>
        <CharString name="Utilde">
          149 callsubr
          143 497 callsubr
          119 callgsubr
          hintmask 00000000
          hintmask 11011000
          473.99000549316406 319 callgsubr
          38 50 44 38 65 -1 rlinecurve
          hintmask 11101000
          424 callsubr
          144 hhcurveto
          -23 callgsubr
          72 97.02000427246094 -27 callgsubr
          27 hvcurveto
          -58 82 rlineto
          -37 -57 callsubr
          -36 5 callsubr
          -80 hhcurveto
          hintmask 11011000
          57 callsubr
          546 callsubr
          -113.99000549316406 81 callgsubr
          519 callgsubr
          hintmask 11101000
          -321 -1208 -105 callgsubr
        </CharString>
        <CharString name="V">
          -56 -31 callsubr
          43 1375.9700012207031 124 -101 101 hstemhm
          70.97999572753906 1294 hintmask 10110000
          193.99000549316406 378 callgsubr
          rmoveto
          236 -1418.979995727539 446 callsubr
          12 641 1407.979995727539 106 23 10 100 rlineto
          -415 hlineto
          -10 -100 rlineto
          hintmask 11010000
          136 -24 -413 -947 -94 -276.00999450683594 292 callgsubr
          276.00999450683594 -134.99000549316406 947 rlineto
          hintmask 10110000
          151.99000549316406 23 182 callgsubr
          -95 callsubr
          -488 hlineto
          105 callgsubr
          -96 callgsubr
          123 -23 rlineto
          endchar
        </CharString>
        <CharString name="W">
          102 callsubr
          457 callsubr
          151 378 callgsubr
          -97 callgsubr
        </CharString>
        <CharString name="Wacute">
          102 callsubr
          137 43 457 callsubr
          948.9799957275391 1658.979995727539 rmoveto
          65 -47.99000549316406 96.00999450683594 125 callgsubr
          -797.9900054931641 -261 -97 callgsubr
        </CharString>
        <CharString name="Wcircumflex">
          102 callsubr
          328 150.99000549316406 457 callsubr
          699.9900054931641 160 callgsubr
          239 -227 70.99000549316406 -8 callgsubr
          -548.9900054931641 -284 -97 callgsubr
        </CharString>
        <CharString name="Wdieresis">
          102 callsubr
          201.989990234375 204 callgsubr
          hstem
          724.9900054931641 -2 callsubr
          vstem
          724.9900054931641 364 callsubr
          72 0 callsubr
          87 callgsubr
          -993 -446.00999450683594 -97 callgsubr
        </CharString>
        <CharString name="Wgrave">
          102 callsubr
          137 43 457 callsubr
          692.9799957275391 184 callgsubr
          -541.9900054931641 -482 -97 callgsubr
        </CharString>
        <CharString name="X">
          15 551 callsubr
          -62.99000549316406 1448.979995727539 27 callsubr
          542 hlineto
          9 -83 callsubr
          -153 29 -35 callsubr
        </CharString>
        <CharString name="Y">
          -104 551 callsubr
          92 callgsubr
          1298 vstem
          527 callsubr
          87.97999572753906 -98 callgsubr
        </CharString>
        <CharString name="Yacute">
          -104 181 callgsubr
          137.010009765625 43 282 callgsubr
          670.9900054931641 1658.979995727539 235 callgsubr
          96.02000427246094 125 callgsubr
          -419 -1571 -98 callgsubr
        </CharString>
        <CharString name="Ycircumflex">
          -104 181 callgsubr
          368 callgsubr
          92 callgsubr
          1298 vstem
          409 callgsubr
          1681.979995727539 rmoveto
          63 -58 324 226.02000427246094 239 -227 71 -8 callgsubr
          -170 -1594 -98 callgsubr
        </CharString>
        <CharString name="Ydieresis">
          -104 181 callgsubr
          456 callsubr
          563 callgsubr
          -2 callsubr
          vstem
          447 364 callsubr
          72 -58 callsubr
          -614.0099945068359 -1756.020004272461 -98 callgsubr
        </CharString>
        <CharString name="Ygrave">
          -104 181 callgsubr
          137.010009765625 43 282 callgsubr
          414.99000549316406 20 callsubr
          68.00999450683594 39 callgsubr
          -163 -1792 -98 callgsubr
        </CharString>
        <CharString name="Z">
          -90 0 160 callsubr
          -86 86 368 callsubr
          hintmask 11010000
          -5 205 callsubr
          43 callgsubr
          rlineto
          hintmask 10110000
          813.0200042724609 1136 rlineto
          hintmask 11010000
          28 callsubr
          416 callgsubr
        </CharString>
        <CharString name="Zacute">
          -90 0 160 callsubr
          -86 86 137 43 368 callsubr
          hintmask 11011000
          637.9900054931641 -62 callsubr
          -126.00999450683594 121.02000427246094 410 callsubr
          -342.02000427246094 rlineto
          -642.9900054931641 -1570 43 callgsubr
          rlineto
          hintmask 10111000
          813.0200042724609 1136 rlineto
          hintmask 11011000
          28 callsubr
          416 callgsubr
        </CharString>
        <CharString name="Zcaron">
          -90 0 160 callsubr
          -86 86 101 166 callgsubr
          368 callsubr
          hintmask 11011000
          418.97999572753906 234 callgsubr
          170 callsubr
          -233 -237.02000427246094 476 callsubr
          -423.9700012207031 -1854.009994506836 43 callgsubr
          rlineto
          hintmask 10111000
          813.0200042724609 1136 rlineto
          hintmask 11011000
          28 callsubr
          416 callgsubr
        </CharString>
        <CharString name="Zdotaccent">
          -90 0 160 callsubr
          -86 86 165.989990234375 266.99000549316406 368 callsubr
          -596.0200042724609 336 callgsubr
          hintmask 00000000
          hintmask 10110100
          612.9900054931641 314 callsubr
          266 callgsubr
          81 callgsubr
          29 callgsubr
          -617.9799957275391 -1715 43 callgsubr
          813.0200042724609 1136 rlineto
          hintmask 11001000
          28 callsubr
          rlineto
          hintmask 10110100
          416 callgsubr
        </CharString>
        <CharString name="a">
          290 callsubr
          732 1163 -107 callgsubr
        </CharString>
        <CharString name="aacute">
          290 callsubr
          614.9900054931641 -33 callgsubr
          -144.02000427246094 393 callsubr
          117 218 callsubr
          -107 callgsubr
        </CharString>
        <CharString name="abreve">
          369 callgsubr
          284 callgsubr
          88 callsubr
          145 113 vstem
          437.99000549316406 231 callsubr
          336 callsubr
          -141 427 callgsubr
          -126.00999450683594 131 callsubr
          294.00999450683594 -467.99000549316406 -107 callgsubr
        </CharString>
        <CharString name="acircumflex">
          290 callsubr
          360 296 callsubr
          310 callsubr
          28 callgsubr
          -328.99000549316406 -365.02000427246094 rlineto
          372 243 callsubr
          -107 callgsubr
        </CharString>
        <CharString name="acute">
          -723 1249.990005493164 492.99000549316406 hstem
          50 callsubr
          461 vstem
          50 callsubr
          -33 callgsubr
          -144.02000427246094 393 callsubr
          endchar
        </CharString>
        <CharString name="acute.cap">
          -755 1658.990005493164 43 hstem
          96 callgsubr
          402 vstem
          96 callgsubr
          -62 callsubr
          322 callgsubr
          21 callgsubr
          endchar
        </CharString>
        <CharString name="adieresis">
          369 callgsubr
          -61 callgsubr
          88 callsubr
          110 340 callgsubr
          vstem
          402.97999572753906 -78 callgsubr
          422.02000427246094 536 callsubr
          507 callgsubr
          77 callgsubr
          -75 -77 -69 -68 callgsubr
          hvcurveto
          -93 -339.99000549316406 -107 callgsubr
        </CharString>
        <CharString name="ae">
          86 callsubr
          81.97999572753906 410.99000549316406 -95 callgsubr
        </CharString>
        <CharString name="aeacute">
          86 callsubr
          799.9900054931641 -33 callgsubr
          -144 138 266 callsubr
          -431 rlineto
          -718 -901 -95 callgsubr
        </CharString>
        <CharString name="agrave">
          290 callsubr
          334.99000549316406 232 callgsubr
          397 -431.99000549316406 -107 callgsubr
        </CharString>
        <CharString name="amacron">
          369 callgsubr
          571 callgsubr
          88 callsubr
          vstem
          467.99000549316406 382 callgsubr
          264.00999450683594 -413 -107 callgsubr
        </CharString>
        <CharString name="ampersand">
          263 -20 106 -104 111 557.9900054931641 154.99000549316406 -125.00001525878906 149 615 104 hstemhm
          50 callsubr
          210 53 185.99000549316406 401.00999450683594 292 callsubr
          -88 callgsubr
          243 callgsubr
          194.00999450683594 129 callgsubr
          hintmask 0000000000000000
          hintmask 0101110011000000
          880.9900054931641 780.9799957275391 rmoveto
          199 callgsubr
          vlineto
          93 callgsubr
          29 58 23 62 14 13 -34 callgsubr
          13 hhcurveto
          12 -37 10 -46 -56 vvcurveto
          528 callgsubr
          -14 -100 -51 -75 vhcurveto
          -159 141 -134.99000549316406 183 -119 210.99000549316406 rrcurveto
          hintmask 0110111101000000
          377 callsubr
          130 257 118 239.99000549316406 vvcurveto
          137 -81 6 callgsubr
          -251 -255 -200.99000549316406 -157 -243 -110 41 -149 -39 callsubr
          -111 vhcurveto
          hintmask 0110110011000000
          -186 -97.02000427246094 -165.99000549316406 -110 -205 vvcurveto
          -272 258.99000549316406 152 callgsubr
          259.00999450683594 218 callgsubr
          129 196 callgsubr
          52 109.02000427246094 vhcurveto
          -54 70 86 -26.990005493164062 183 callgsubr
          hhcurveto
          43 57 0 20 81 hvcurveto
          hintmask 1010110011000000
          11 86 55 callsubr
          1 -70 112 callgsubr
          -54 -22 callgsubr
          rlinecurve
          -30 112 callgsubr
          -29 19 -29 22 rrcurveto
          -21 callgsubr
          101.00999450683594 -85 callgsubr
          138 170 vvcurveto
          -17 callsubr
          -2 callgsubr
          23.020004272460938 -3 -58 callgsubr
          vhcurveto
          -2 18 18 -34 callgsubr
          19 hhcurveto
          158.99000549316406 63 127 190 hvcurveto
          90 callsubr
          hlineto
          -123 -19 -66 219 callgsubr
          172 callsubr
          hhcurveto
          hintmask 0101110011000000
          -92 -80 24 195 callgsubr
          hhcurveto
          -87.99000549316406 -49 -31 -18 -18 hvcurveto
          hintmask 0110111101000000
          -310.99000549316406 -24 callsubr
          rmoveto
          406 callsubr
          75 -51 callgsubr
          112 151 callgsubr
          vvcurveto
          151 89.99000549316406 118 387 callgsubr
          -12 callsubr
          153 callsubr
          91 callsubr
          -90.00999450683594 -187 -153 -103 265 callgsubr
          -93 vhcurveto
          298.99000549316406 -734 rmoveto
          -25.009994506835938 -71 -90.99000549316406 -12.990005493164062 -119.00999450683594 hhcurveto
          hintmask 0110110101000000
          -172 -156 85 194 132 81 95 112 81 hvcurveto
          hintmask 0110111101000000
          115 -193 87 -158 214 -198 rrcurveto
          endchar
        </CharString>
        <CharString name="aogonek">
          -107 -419 182 callsubr
          267.00999450683594 35 callgsubr
          302 430 callsubr
          vstem
          732 1163 rmoveto
          -38 callgsubr
          87 -182 225 48 callsubr
          121 -10 callgsubr
          99 77 hvcurveto
          -7 -65.99000549316406 -4 -24 callgsubr
          35 -39.970001220703125 57 -11 rlinecurve
          91 callgsubr
          280 callsubr
          -58 183 callsubr
          -54 -72 -25.009994506835938 302 callsubr
          -32 callsubr
          46 callgsubr
          -73 169 callgsubr
          hhcurveto
          117 6 callsubr
          49 -39 callsubr
          53 hvcurveto
          -6 callsubr
          95 rlineto
          172 callgsubr
          -56 -39 69 callsubr
          -36 hhcurveto
          -24 -34 522 callgsubr
          2 116 callsubr
          88 74.02000427246094 109 85.97000122070312 43 29 29 306 callsubr
          7 471 callsubr
          -31 54 rcurveline
          -30 callsubr
          -18 hhcurveto
          -17 -47 callsubr
          22 54 7 hvcurveto
          131 973 -121.02000427246094 -34 rlineto
          -33 callsubr
          -85 callsubr
          135 callsubr
        </CharString>
        <CharString name="approxequal">
          -256 283.99000549316406 169 1.989990234375 169 106 169 2.010009765625 169 hstemhm
          42.99000549316406 979 hintmask 01011000
          93 860 rmoveto
          116 callsubr
          -75 rlineto
          70 47 66.00999450683594 46 88 116 -27 callgsubr
          -171 155 hhcurveto
          hintmask 01101000
          151.02000427246094 132 103 169 callgsubr
          29 hvcurveto
          -72 75 rlineto
          -70 -47 -65.99000549316406 -47 -89 256 callgsubr
          -76 171 265 callsubr
          hhcurveto
          hintmask 01011000
          -151 -129 352 callsubr
          3 callgsubr
          83 callgsubr
          hvcurveto
          -50 -446.02000427246094 rmoveto
          9 callsubr
          -75 rlineto
          70 47 65.99000549316406 46 88 116 73.02000427246094 408 callsubr
          154.99000549316406 hhcurveto
          hintmask 10011000
          151 132 103 98 callgsubr
          29 hvcurveto
          54 callgsubr
          75.02000427246094 rlineto
          -70 -47 530 callsubr
          -47 70 callgsubr
          -113 -76 407 callgsubr
          -154 hhcurveto
          hintmask 01011000
          -151 434 callgsubr
          -113.99000549316406 169 callsubr
          -32 hvcurveto
          endchar
        </CharString>
        <CharString name="aring">
          369 callgsubr
          89.989990234375 439 callsubr
          88 callsubr
          163 143.99000549316406 340.02000427246094 142 vstem
          455.99000549316406 1485.990005493164 rmoveto
          -141.99000549316406 1 callgsubr
          -91.02000427246094 185 167 178 94 212 144 57 callsubr
          6 callsubr
          -173 -161 -190 -87 -214 vhcurveto
          484 52 rmoveto
          -152 -87 -45 -96 callgsubr
          -87 -65 73 433 callgsubr
          218 callgsubr
          307 callsubr
          49 100 205 callsubr
          60 -66 -93 vhcurveto
          -208 -374.99000549316406 -107 callgsubr
        </CharString>
        <CharString name="arrowdown">
          362 callsubr
          843 rmoveto
          -408.99000549316406 -410.00999450683594 12.979995727539062 112 rlineto
          902 vlineto
          -160.99000549316406 -1 rlineto
          -901 vlineto
          13 -111 -409.00999450683594 409 -113 -110 589 -590 590 590 -113 110 rlineto
          endchar
        </CharString>
        <CharString name="arrowleft">
          415 callgsubr
          812.9900054931641 1242.990005493164 rmoveto
          -110 46 callsubr
          -590.0099945068359 -589.9900054931641 590.0099945068359 -589 110 137 callsubr
          -410.00999450683594 408 112.00999450683594 -12 rlineto
          899.9900054931641 hlineto
          2 161 rlineto
          -902 hlineto
          -112.00999450683594 -13 569 callsubr
          409 rlineto
          endchar
        </CharString>
        <CharString name="arrowright">
          415 callgsubr
          716.9799957275391 1242.990005493164 rmoveto
          569 callsubr
          -409 -112 13 rlineto
          -902 hlineto
          2 -161 rlineto
          899.9900054931641 hlineto
          112 12 -410.00999450683594 -408 110 256 callgsubr
          590.0099945068359 589 -590.0099945068359 589.9900054931641 -110 152 callgsubr
          rlineto
          endchar
        </CharString>
        <CharString name="arrowup">
          362 callsubr
          746.9900054931641 rmoveto
          113 110 -590 590 -589 -590 113 -110 409.00999450683594 409 -13 -111 rlineto
          -901 vlineto
          136 callsubr
          -1 rlineto
          902 vlineto
          -12.979995727539062 112 408.99000549316406 -410.00999450683594 rlineto
          endchar
        </CharString>
        <CharString name="asciicircum">
          81 1317.990005493164 567 callsubr
          -40.96002197265625 276 callsubr
          184.99000549316406 992.9900054931641 hintmask 01100000
          576.9799957275391 1530.979995727539 rmoveto
          -391.99000549316406 -1117.990005493164 rlineto
          158.99000549316406 hlineto
          hintmask 10100000
          336.02000427246094 905 337 -905 rlineto
          136 callsubr
          hlineto
          -397 1117.990005493164 rlineto
          hintmask 01100000
          -204 hlineto
          endchar
        </CharString>
        <CharString name="asciitilde">
          -145 718.9900054931641 169 2 168.97999572753906 hstemhm
          335 callgsubr
          928.9900054931641 hintmask 01100000
          150 849 rmoveto
          116 callsubr
          195 callgsubr
          rlineto
          70 47 66.00999450683594 447 callgsubr
          88 116 -27 callgsubr
          -171 387 callgsubr
          hhcurveto
          hintmask 10100000
          151 182 callsubr
          103 169 callgsubr
          29 hvcurveto
          -72 75 rlineto
          -70 -46.97999572753906 530 callsubr
          -47 -89 152 callgsubr
          -76 407 callgsubr
          -154 hhcurveto
          hintmask 01100000
          -151 -129 -113.99000549316406 3 callgsubr
          83 callgsubr
          hvcurveto
          endchar
        </CharString>
</ttFont>
